<svg width="30" height="30" viewBox="0 0 30 30" fill="none" xmlns="http://www.w3.org/2000/svg">
<path d="M16.6413 14.8738L21.06 10.4538C21.1794 10.3385 21.2747 10.2006 21.3402 10.0481C21.4057 9.89555 21.4402 9.73152 21.4416 9.56555C21.4431 9.39958 21.4114 9.23498 21.3486 9.08136C21.2857 8.92773 21.1929 8.78817 21.0755 8.6708C20.9582 8.55344 20.8186 8.46062 20.665 8.39777C20.5114 8.33492 20.3468 8.30329 20.1808 8.30473C20.0148 8.30618 19.8508 8.34066 19.6983 8.40617C19.5458 8.47168 19.4079 8.56691 19.2925 8.6863L14.8725 13.105L10.4538 8.6863C10.3385 8.56691 10.2006 8.47168 10.0481 8.40617C9.89555 8.34066 9.73152 8.30618 9.56555 8.30473C9.39958 8.30329 9.23498 8.33492 9.08136 8.39777C8.92773 8.46062 8.78817 8.55344 8.6708 8.6708C8.55344 8.78817 8.46062 8.92773 8.39777 9.08136C8.33492 9.23498 8.30329 9.39958 8.30473 9.56555C8.30618 9.73152 8.34066 9.89555 8.40617 10.0481C8.47168 10.2006 8.56691 10.3385 8.6863 10.4538L13.105 14.8725L8.6863 19.2925C8.56691 19.4079 8.47168 19.5458 8.40617 19.6983C8.34066 19.8508 8.30618 20.0148 8.30473 20.1808C8.30329 20.3468 8.33492 20.5114 8.39777 20.665C8.46062 20.8186 8.55344 20.9582 8.6708 21.0755C8.78817 21.1929 8.92773 21.2857 9.08136 21.3486C9.23498 21.4114 9.39958 21.4431 9.56555 21.4416C9.73152 21.4402 9.89555 21.4057 10.0481 21.3402C10.2006 21.2747 10.3385 21.1794 10.4538 21.06L14.8725 16.6413L19.2925 21.06C19.4079 21.1794 19.5458 21.2747 19.6983 21.3402C19.8508 21.4057 20.0148 21.4402 20.1808 21.4416C20.3468 21.4431 20.5114 21.4114 20.665 21.3486C20.8186 21.2857 20.9582 21.1929 21.0755 21.0755C21.1929 20.9582 21.2857 20.8186 21.3486 20.665C21.4114 20.5114 21.4431 20.3468 21.4416 20.1808C21.4402 20.0148 21.4057 19.8508 21.3402 19.6983C21.2747 19.5458 21.1794 19.4079 21.06 19.2925L16.6413 14.8725V14.8738Z" fill="#21272A"/>
</svg>
