<svg width="18" height="13" viewBox="0 0 18 13" fill="none" xmlns="http://www.w3.org/2000/svg">
<path fill-rule="evenodd" clip-rule="evenodd" d="M0 5.5C1.65927 2.23771 5.06618 0 9 0C12.9338 0 16.3407 2.23771 18 5.5C16.3407 8.76229 12.9338 11 9 11C5.06618 11 1.65927 8.76229 0 5.5ZM9 8.25C9.37606 8.25 9.74843 8.17887 10.0959 8.04067C10.4433 7.90247 10.759 7.6999 11.0249 7.44454C11.2908 7.18918 11.5017 6.88602 11.6457 6.55238C11.7896 6.21873 11.8636 5.86114 11.8636 5.5C11.8636 5.13886 11.7896 4.78127 11.6457 4.44762C11.5017 4.11398 11.2908 3.81082 11.0249 3.55546C10.759 3.3001 10.4433 3.09753 10.0959 2.95933C9.74843 2.82113 9.37606 2.75 9 2.75C8.24052 2.75 7.51214 3.03973 6.9751 3.55546C6.43807 4.07118 6.13636 4.77065 6.13636 5.5C6.13636 6.22935 6.43807 6.92882 6.9751 7.44454C7.51214 7.96027 8.24052 8.25 9 8.25Z" fill="currentColor"/>
<line x1="1" y1="-1" x2="18.0437" y2="-1" transform="matrix(-0.816306 0.57762 -0.608743 -0.793367 16.3633 0)" stroke="currentColor" stroke-width="2" stroke-linecap="round"/>
</svg>
