<svg width="290" height="290" viewBox="0 0 290 290" fill="none" xmlns="http://www.w3.org/2000/svg">
<rect width="290" height="290" rx="50" fill="url(#paint0_radial_6839_6111)"/>
<mask id="mask0_6839_6111" style="mask-type:alpha" maskUnits="userSpaceOnUse" x="0" y="0" width="290" height="290">
<path d="M290 240C290 267.614 267.614 290 240 290L50 290C22.3858 290 3.24746e-05 267.614 3.48887e-05 240L5.1499e-05 50.0003C5.39132e-05 22.386 22.3858 0.00028178 50.0001 0.000284194L240 0.000300805C267.614 0.000303219 290 22.3861 290 50.0003L290 240Z" fill="url(#paint1_radial_6839_6111)"/>
</mask>
<g mask="url(#mask0_6839_6111)">
<g filter="url(#filter0_f_6839_6111)">
<path d="M288.997 290L288.997 0L-1.00342 290L288.997 290Z" fill="black"/>
</g>
<g filter="url(#filter1_f_6839_6111)">
<path d="M219.063 237.187L205.625 237.187C205.625 237.187 243.125 290 244.688 290L249.128 290C252.679 290 255.545 290 260.313 290C262.628 290 263.72 289.73 265.938 289.063C268.715 288.227 269.855 288.066 272.5 286.875C276.15 285.232 278.187 283.534 280.938 280.625C283.404 278.017 284.846 276.59 286.563 273.438C288.08 270.651 288.452 269.051 289.063 265.937C289.649 262.943 289.688 261.176 289.688 258.125L289.688 231.563L246.875 207.499L246.875 211.562L244.688 218.437L240.938 223.749L236.563 228.437L229.688 234.374L219.063 237.187Z" fill="url(#paint2_linear_6839_6111)"/>
</g>
<g filter="url(#filter2_f_6839_6111)">
<path d="M90.3125 56.5627L103.75 56.5627C103.75 56.5627 46.5625 -5.62501 44.9999 -5.625L40.5594 -5.62495C37.0086 -5.62491 34.1422 -5.62488 29.3749 -5.62496C27.0594 -5.62499 25.9674 -5.35457 23.75 -4.68756C20.9721 -3.85194 19.8325 -3.69102 17.1874 -2.50013C13.5371 -0.856685 11.5005 0.841319 8.7499 3.74986C6.28371 6.35768 4.84169 7.78531 3.125 10.9374C1.6074 13.724 1.23507 15.324 0.625 18.4378C0.038392 21.4318 0 23.1989 0 26.2499L0 52.8124L62.5 86.2502L62.5 82.1877L64.6875 75.3127L68.4375 70.0002L72.8125 65.3127L79.6875 59.3752L90.3125 56.5627Z" fill="url(#paint3_linear_6839_6111)" fill-opacity="0.9"/>
</g>
</g>
<rect x="40.625" y="40.625" width="208" height="208" rx="50" fill="url(#paint4_linear_6839_6111)"/>
<mask id="mask1_6839_6111" style="mask-type:alpha" maskUnits="userSpaceOnUse" x="40" y="40" width="209" height="209">
<rect x="41.125" y="41.125" width="207" height="207" rx="49.5" stroke="url(#paint5_linear_6839_6111)"/>
</mask>
<g mask="url(#mask1_6839_6111)">
<g filter="url(#filter3_f_6839_6111)">
<rect x="42.5" y="42.5" width="203" height="203" rx="47.5" stroke="url(#paint6_linear_6839_6111)" stroke-width="5"/>
</g>
</g>
<defs>
<filter id="filter0_f_6839_6111" x="-19.0034" y="-18" width="326" height="326" filterUnits="userSpaceOnUse" color-interpolation-filters="sRGB">
<feFlood flood-opacity="0" result="BackgroundImageFix"/>
<feBlend mode="normal" in="SourceGraphic" in2="BackgroundImageFix" result="shape"/>
<feGaussianBlur stdDeviation="9" result="effect1_foregroundBlur_6839_6111"/>
</filter>
<filter id="filter1_f_6839_6111" x="195.625" y="197.499" width="104.062" height="102.501" filterUnits="userSpaceOnUse" color-interpolation-filters="sRGB">
<feFlood flood-opacity="0" result="BackgroundImageFix"/>
<feBlend mode="normal" in="SourceGraphic" in2="BackgroundImageFix" result="shape"/>
<feGaussianBlur stdDeviation="5" result="effect1_foregroundBlur_6839_6111"/>
</filter>
<filter id="filter2_f_6839_6111" x="-8" y="-13.625" width="119.75" height="107.875" filterUnits="userSpaceOnUse" color-interpolation-filters="sRGB">
<feFlood flood-opacity="0" result="BackgroundImageFix"/>
<feBlend mode="normal" in="SourceGraphic" in2="BackgroundImageFix" result="shape"/>
<feGaussianBlur stdDeviation="4" result="effect1_foregroundBlur_6839_6111"/>
</filter>
<filter id="filter3_f_6839_6111" x="30" y="30" width="228" height="228" filterUnits="userSpaceOnUse" color-interpolation-filters="sRGB">
<feFlood flood-opacity="0" result="BackgroundImageFix"/>
<feBlend mode="normal" in="SourceGraphic" in2="BackgroundImageFix" result="shape"/>
<feGaussianBlur stdDeviation="5" result="effect1_foregroundBlur_6839_6111"/>
</filter>
<radialGradient id="paint0_radial_6839_6111" cx="0" cy="0" r="1" gradientUnits="userSpaceOnUse" gradientTransform="translate(145 145) rotate(-90) scale(145)">
<stop stop-color="#343434"/>
<stop offset="1" stop-color="#1F1F1F"/>
</radialGradient>
<radialGradient id="paint1_radial_6839_6111" cx="0" cy="0" r="1" gradientUnits="userSpaceOnUse" gradientTransform="translate(145 145) rotate(90) scale(145 145)">
<stop stop-color="#BDBDBD"/>
<stop offset="1" stop-color="#525252"/>
</radialGradient>
<linearGradient id="paint2_linear_6839_6111" x1="245.625" y1="283.125" x2="283.75" y2="237.5" gradientUnits="userSpaceOnUse">
<stop stop-color="#1F1F1F"/>
<stop offset="0.543269" stop-color="#343434"/>
<stop offset="1" stop-color="#1F1F1F"/>
</linearGradient>
<linearGradient id="paint3_linear_6839_6111" x1="55.3125" y1="10.6253" x2="10.3125" y2="55.6253" gradientUnits="userSpaceOnUse">
<stop stop-color="#1F1F1F"/>
<stop offset="0.466346" stop-color="#525252"/>
<stop offset="1" stop-color="#1F1F1F"/>
</linearGradient>
<linearGradient id="paint4_linear_6839_6111" x1="272.533" y1="144.625" x2="63.3376" y2="129.682" gradientUnits="userSpaceOnUse">
<stop stop-color="#343434"/>
<stop offset="1" stop-color="#1F1F1F"/>
</linearGradient>
<linearGradient id="paint5_linear_6839_6111" x1="90.4454" y1="78.613" x2="233.056" y2="237.415" gradientUnits="userSpaceOnUse">
<stop stop-color="#343434"/>
<stop offset="1" stop-color="#1F1F1F"/>
</linearGradient>
<linearGradient id="paint6_linear_6839_6111" x1="89.8204" y1="77.988" x2="232.431" y2="236.79" gradientUnits="userSpaceOnUse">
<stop stop-color="#343434"/>
<stop offset="1" stop-color="#1F1F1F"/>
</linearGradient>
</defs>
</svg>
