<svg xmlns="http://www.w3.org/2000/svg" fill="none" viewBox="0 0 600 290"><rect width="600" height="290" fill="url(#a)" rx="50"/><mask id="c" width="600" height="290" x="0" y="0" maskUnits="userSpaceOnUse" style="mask-type:alpha"><path fill="url(#b)" d="M600 240c0 27.614-22.386 50-50 50H50c-27.614 0-50-22.386-50-50V50C0 22.386 22.386 0 50 0h500c27.614 0 50 22.386 50 50z"/></mask><g mask="url(#c)"><g filter="url(#d)"><path fill="#000" d="M599 290V0L-1 290z"/></g><g filter="url(#e)"><path fill="url(#f)" fill-opacity=".4" d="M471.497 239.799H443.71s77.543 61.558 80.774 61.558h32.31c4.788 0 7.046-.315 11.631-1.092 5.744-.974 8.1-1.162 13.57-2.55 7.548-1.915 11.759-3.895 17.447-7.285 5.1-3.039 8.081-4.704 11.631-8.378 3.138-3.248 3.908-5.113 5.17-8.742 1.213-3.49 1.292-5.55 1.292-9.106v-30.961l-88.528-28.047v4.735l-4.523 8.013-7.754 6.192-9.047 5.464-14.216 6.921z"/></g><g filter="url(#g)"><path fill="url(#h)" fill-opacity=".9" d="M186.853 56.563h27.802S96.336-5.625 93.103-5.625H60.776c-4.791 0-7.05.27-11.638.937-5.747.836-8.105.997-13.578 2.188C28.008-.857 23.794.84 18.103 3.75c-5.102 2.608-8.086 4.035-11.637 7.187-3.14 2.787-3.91 4.387-5.173 7.5C.08 21.433 0 23.2 0 26.25v26.562L129.31 86.25v-4.062l4.526-6.875L141.595 70l9.052-4.687 14.224-5.938z"/></g></g><rect width="500" height="208" x="50" y="41" fill="url(#i)" rx="50"/><mask id="k" width="500" height="208" x="50" y="41" maskUnits="userSpaceOnUse" style="mask-type:alpha"><rect width="499" height="206.005" x="50.5" y="41.5" stroke="url(#j)" rx="49.5"/></mask><g filter="url(#l)" mask="url(#k)"><rect width="495" height="203" x="52.5" y="43.5" stroke="url(#m)" stroke-width="5" rx="47.5"/></g><defs><linearGradient id="f" x1="526.422" x2="561.238" y1="293.344" y2="219.429" gradientUnits="userSpaceOnUse"><stop stop-color="#1f1f1f"/><stop offset=".543" stop-color="#525252"/><stop offset="1" stop-color="#1f1f1f"/></linearGradient><linearGradient id="h" x1="114.44" x2="79.177" y1="10.625" y2="83.582" gradientUnits="userSpaceOnUse"><stop stop-color="#1f1f1f"/><stop offset=".466" stop-color="#525252"/><stop offset="1" stop-color="#1f1f1f"/></linearGradient><linearGradient id="i" x1="607.471" x2="116.507" y1="145" y2="60.7" gradientUnits="userSpaceOnUse"><stop stop-color="#343434"/><stop offset="1" stop-color="#1f1f1f"/></linearGradient><linearGradient id="j" x1="169.76" x2="263.017" y1="78.806" y2="329.634" gradientUnits="userSpaceOnUse"><stop stop-color="#fff"/><stop offset="1" stop-color="#d4d4d4"/></linearGradient><linearGradient id="m" x1="169.76" x2="263.806" y1="78.988" y2="330.727" gradientUnits="userSpaceOnUse"><stop stop-color="#757575"/><stop offset="1" stop-color="#1f1f1f"/></linearGradient><filter id="d" width="636" height="326" x="-19" y="-18" color-interpolation-filters="sRGB" filterUnits="userSpaceOnUse"><feFlood flood-opacity="0" result="BackgroundImageFix"/><feBlend in="SourceGraphic" in2="BackgroundImageFix" result="shape"/><feGaussianBlur result="effect1_foregroundBlur_6839_59884" stdDeviation="9"/></filter><filter id="e" width="193.825" height="116.162" x="433.71" y="195.195" color-interpolation-filters="sRGB" filterUnits="userSpaceOnUse"><feFlood flood-opacity="0" result="BackgroundImageFix"/><feBlend in="SourceGraphic" in2="BackgroundImageFix" result="shape"/><feGaussianBlur result="effect1_foregroundBlur_6839_59884" stdDeviation="5"/></filter><filter id="g" width="230.655" height="107.875" x="-8" y="-13.625" color-interpolation-filters="sRGB" filterUnits="userSpaceOnUse"><feFlood flood-opacity="0" result="BackgroundImageFix"/><feBlend in="SourceGraphic" in2="BackgroundImageFix" result="shape"/><feGaussianBlur result="effect1_foregroundBlur_6839_59884" stdDeviation="4"/></filter><filter id="l" width="520" height="228" x="40" y="31" color-interpolation-filters="sRGB" filterUnits="userSpaceOnUse"><feFlood flood-opacity="0" result="BackgroundImageFix"/><feBlend in="SourceGraphic" in2="BackgroundImageFix" result="shape"/><feGaussianBlur result="effect1_foregroundBlur_6839_59884" stdDeviation="5"/></filter><radialGradient id="a" cx="0" cy="0" r="1" gradientTransform="matrix(0 -145 300 0 300 145)" gradientUnits="userSpaceOnUse"><stop stop-color="#343434"/><stop offset="1" stop-color="#1f1f1f"/></radialGradient><radialGradient id="b" cx="0" cy="0" r="1" gradientTransform="matrix(0 145 -300 0 300 145)" gradientUnits="userSpaceOnUse"><stop stop-color="#bdbdbd"/><stop offset="1" stop-color="#525252"/></radialGradient></defs></svg>