<svg xmlns="http://www.w3.org/2000/svg" fill="none" viewBox="0 0 290 291"><rect width="290" height="290" y="1" fill="url(#a)" rx="50"/><mask id="c" width="290" height="289" x="0" y="0" maskUnits="userSpaceOnUse" style="mask-type:alpha"><rect width="290" height="289" x="290" y="289" fill="url(#b)" rx="50" transform="rotate(-180 290 289)"/></mask><g mask="url(#c)"><g filter="url(#d)"><path fill="#000" d="M293.864 288.703V-14L-3.011 288.703z"/></g><g filter="url(#e)"><path fill="url(#f)" fill-opacity=".5" d="M211.119 236.585h-13.437s37.5 52.631 39.062 52.631h15.625c2.316 0 3.408-.27 5.625-.934 2.778-.833 3.918-.993 6.563-2.18 3.65-1.638 5.687-3.33 8.437-6.229 2.466-2.599 3.908-4.021 5.625-7.163 1.518-2.776 1.89-4.371 2.5-7.474.587-2.984.625-4.745.625-7.785V230.98L238.932 207v4.048l-2.188 6.851-3.75 5.295-4.375 4.671-6.875 5.917z"/></g><g filter="url(#g)"><path fill="url(#h)" fill-opacity=".3" d="M95.33 61.973h13.438S51.58 0 50.018 0H34.393c-2.316 0-3.408.27-5.625.934-2.778.833-3.918.993-6.563 2.18-3.65 1.638-5.687 3.33-8.437 6.229-2.467 2.598-3.909 4.021-5.625 7.162-1.518 2.777-1.89 4.372-2.5 7.475-.587 2.984-.625 4.745-.625 7.785v26.47l62.5 33.323V87.51l2.187-6.851 3.75-5.294 4.375-4.672 6.875-5.917z"/></g></g><rect width="207" height="207" x="40.5" y="41.5" fill="url(#i)" stroke="url(#j)" rx="49.5"/><mask id="m" width="208" height="208" x="40" y="41" maskUnits="userSpaceOnUse" style="mask-type:alpha"><rect width="207" height="207" x="40.5" y="41.5" fill="url(#k)" stroke="url(#l)" rx="49.5"/></mask><g filter="url(#n)" mask="url(#m)"><rect width="203" height="203" x="42.5" y="43.5" stroke="url(#o)" stroke-width="5" rx="47.5"/></g><defs><linearGradient id="f" x1="237.682" x2="275.652" y1="282.364" y2="236.767" gradientUnits="userSpaceOnUse"><stop stop-color="#1f1f1f"/><stop offset=".543" stop-color="#343434"/><stop offset="1" stop-color="#1f1f1f"/></linearGradient><linearGradient id="h" x1="60.33" x2="15.486" y1="16.194" y2="61.194" gradientUnits="userSpaceOnUse"><stop stop-color="#1f1f1f"/><stop offset=".466" stop-color="#525252"/><stop offset="1" stop-color="#1f1f1f"/></linearGradient><linearGradient id="i" x1="271.908" x2="62.713" y1="145" y2="130.057" gradientUnits="userSpaceOnUse"><stop/><stop offset="1" stop-color="#1f1f1f"/></linearGradient><linearGradient id="j" x1="89.82" x2="232.431" y1="78.988" y2="237.79" gradientUnits="userSpaceOnUse"><stop stop-color="#1f1f1f"/><stop offset="1" stop-color="#343434"/></linearGradient><linearGradient id="k" x1="271.908" x2="62.713" y1="145" y2="130.057" gradientUnits="userSpaceOnUse"><stop stop-color="#ffa726"/><stop offset="1" stop-color="#f86902"/></linearGradient><linearGradient id="l" x1="89.82" x2="232.431" y1="78.988" y2="237.79" gradientUnits="userSpaceOnUse"><stop stop-color="#1f1f1f"/><stop offset="1" stop-color="#343434"/></linearGradient><linearGradient id="o" x1="89.82" x2="232.431" y1="78.988" y2="237.79" gradientUnits="userSpaceOnUse"><stop stop-color="#1f1f1f"/><stop offset="1" stop-color="#1f1f1f"/></linearGradient><filter id="d" width="332.875" height="338.702" x="-21.011" y="-32" color-interpolation-filters="sRGB" filterUnits="userSpaceOnUse"><feFlood flood-opacity="0" result="BackgroundImageFix"/><feBlend in="SourceGraphic" in2="BackgroundImageFix" result="shape"/><feGaussianBlur result="effect1_foregroundBlur_6839_6130" stdDeviation="9"/></filter><filter id="e" width="104.062" height="102.216" x="187.682" y="197" color-interpolation-filters="sRGB" filterUnits="userSpaceOnUse"><feFlood flood-opacity="0" result="BackgroundImageFix"/><feBlend in="SourceGraphic" in2="BackgroundImageFix" result="shape"/><feGaussianBlur result="effect1_foregroundBlur_6839_6130" stdDeviation="5"/></filter><filter id="g" width="119.75" height="107.559" x="-2.982" y="-8" color-interpolation-filters="sRGB" filterUnits="userSpaceOnUse"><feFlood flood-opacity="0" result="BackgroundImageFix"/><feBlend in="SourceGraphic" in2="BackgroundImageFix" result="shape"/><feGaussianBlur result="effect1_foregroundBlur_6839_6130" stdDeviation="4"/></filter><filter id="n" width="228" height="228" x="30" y="31" color-interpolation-filters="sRGB" filterUnits="userSpaceOnUse"><feFlood flood-opacity="0" result="BackgroundImageFix"/><feBlend in="SourceGraphic" in2="BackgroundImageFix" result="shape"/><feGaussianBlur result="effect1_foregroundBlur_6839_6130" stdDeviation="5"/></filter><radialGradient id="a" cx="0" cy="0" r="1" gradientTransform="matrix(0 -145 145 0 145 146)" gradientUnits="userSpaceOnUse"><stop stop-color="#1f1f1f"/><stop offset="1"/></radialGradient><radialGradient id="b" cx="0" cy="0" r="1" gradientTransform="matrix(0 -144.5 145 0 435 433.5)" gradientUnits="userSpaceOnUse"><stop stop-color="#bdbdbd"/><stop offset="1" stop-color="#525252"/></radialGradient></defs></svg>