<svg xmlns="http://www.w3.org/2000/svg" xmlns:xlink="http://www.w3.org/1999/xlink" width="290" height="586" fill="none" viewBox="0 0 290 586"><rect width="586" height="290" x="290" fill="url(#a)" rx="50" transform="rotate(90 290 0)"/><g filter="url(#b)"><path fill="url(#c)" d="M119.215 89.97 97.822 58.468S114.737 8 110.072 8c-18.216 0-3.839 3.242-23.43 3.242-6.913 0-10.173.25-16.793.867-8.293.773-8.612-3.358-16.509-2.256-10.897 1.52-16.977 3.09-25.189 5.78-7.362 2.412-7.508 7.976-12.633 10.892-4.53 2.577-1.573 8.697-3.394 11.577-1.751 2.77-2.91 1.81-2.91 4.632V67.3L35.615 105v-3.757l6.531-6.359 11.195-4.913 13.631 8.092 20.525-5.491z"/></g><rect width="500" height="207.933" x="249" y="43" fill="url(#d)" rx="50" transform="rotate(90 249 43)"/><mask id="f" width="208" height="500" x="41" y="43" maskUnits="userSpaceOnUse" style="mask-type:alpha"><rect width="500" height="208" x="249" y="43" fill="url(#e)" rx="50" transform="rotate(90 249 43)"/></mask><g filter="url(#g)" mask="url(#f)"><rect width="495" height="203" x="246.5" y="45.5" stroke="url(#h)" stroke-width="5" rx="47.5" transform="rotate(90 246.5 45.5)"/></g><defs><linearGradient id="c" x1="136.139" x2="109.043" y1="44.749" y2="99.061" gradientUnits="userSpaceOnUse"><stop stop-color="#f87d02"/><stop offset=".466" stop-color="#ffbe7c"/><stop offset="1" stop-color="#f87d02"/></linearGradient><linearGradient id="d" x1="806.471" x2="315.516" y1="146.966" y2="62.64" gradientUnits="userSpaceOnUse"><stop stop-color="#ffa726"/><stop offset="1" stop-color="#f86902"/></linearGradient><linearGradient id="e" x1="806.471" x2="315.507" y1="147" y2="62.7" gradientUnits="userSpaceOnUse"><stop stop-color="#ffa726"/><stop offset="1" stop-color="#f86902"/></linearGradient><linearGradient id="h" x1="368.76" x2="462.806" y1="80.988" y2="332.727" gradientUnits="userSpaceOnUse"><stop stop-color="#fff"/><stop offset="1" stop-color="#f89202"/></linearGradient><filter id="b" width="126" height="113" x="1.215" y="0" color-interpolation-filters="sRGB" filterUnits="userSpaceOnUse"><feFlood flood-opacity="0" result="BackgroundImageFix"/><feBlend in="SourceGraphic" in2="BackgroundImageFix" result="shape"/><feGaussianBlur result="effect1_foregroundBlur_6834_66707" stdDeviation="4"/></filter><filter id="g" width="228" height="520" x="31" y="33" color-interpolation-filters="sRGB" filterUnits="userSpaceOnUse"><feFlood flood-opacity="0" result="BackgroundImageFix"/><feBlend in="SourceGraphic" in2="BackgroundImageFix" result="shape"/><feGaussianBlur result="effect1_foregroundBlur_6834_66707" stdDeviation="5"/></filter><radialGradient id="a" cx="0" cy="0" r="1" gradientTransform="matrix(0 -145 293 0 583 145)" gradientUnits="userSpaceOnUse"><stop stop-color="#ffa726"/><stop offset="1" stop-color="#f87d02"/></radialGradient></defs></svg>