<svg xmlns="http://www.w3.org/2000/svg" fill="none" viewBox="0 0 893 290"><rect width="893" height="290" fill="url(#a)" rx="50"/><mask id="c" width="893" height="290" x="0" y="0" maskUnits="userSpaceOnUse" style="mask-type:alpha"><rect width="893" height="290" x="893" y="290" fill="url(#b)" rx="50" transform="rotate(-180 893 290)"/></mask><g mask="url(#c)"><g filter="url(#d)"><path fill="#e95d00" d="M892.727 289.58V0L-1.725 289.58z"/></g><g filter="url(#e)" style="mix-blend-mode:hard-light"><path fill="url(#f)" fill-opacity=".4" d="M778.938 226.234h-33.847s40.932 63.97 44.868 63.97h39.357c5.833 0 8.584-.27 14.169-.936 6.997-.834 9.868-.995 16.53-2.184 9.195-1.641 14.325-3.337 21.254-6.241 6.212-2.604 9.844-4.03 14.168-7.177 3.823-2.783 4.761-4.38 6.297-7.49 1.478-2.989 1.575-4.754 1.575-7.8v-26.524l-54.314-35.262v4.057l-5.51 6.865-9.446 5.304-11.02 4.681-17.317 5.929z"/></g><g filter="url(#g)"><path fill="url(#h)" d="m116.253 45.56 22.059 34.013-32.707 2.808-21.164 5.93-14.056-8.738-11.544 5.305-6.734 6.865v4.056L-37.73 58.353V31.83c0-3.046.118-4.81 1.924-7.8 1.878-3.11 3.024-4.707 7.695-7.49 5.285-3.147 9.724-4.573 17.316-7.177 8.467-2.904 14.737-4.6 25.974-6.24 8.142-1.19 11.65-1.35 20.202-2.185C41.85.305 45.208.03 51.61.003a211 211 0 0 0-5.148-3.261C38.798-4.771 31.457-6.24 40.571-6.24c.702 0 2.807 1.1 5.892 2.982C54.596-1.653 63.095 0 52.695 0q-.555 0-1.084.002C72.77 13.777 116.253 45.56 116.253 45.56"/></g></g><rect width="809" height="209" x="42" y="41" fill="url(#i)" rx="50"/><mask id="k" width="809" height="209" x="42" y="41" maskUnits="userSpaceOnUse" style="mask-type:alpha"><rect width="809" height="209" x="42" y="41" fill="url(#j)" rx="50"/></mask><g filter="url(#l)" mask="url(#k)"><rect width="804" height="204" x="44.5" y="43.5" stroke="url(#m)" stroke-width="5" rx="47.5"/></g><defs><linearGradient id="f" x1="792.32" x2="815.415" y1="283.339" y2="213.619" gradientUnits="userSpaceOnUse"><stop stop-color="#f87d02"/><stop offset=".466" stop-color="#ffbe7c"/><stop offset="1" stop-color="#f87d02"/></linearGradient><linearGradient id="h" x1="103.148" x2="73.094" y1="44.935" y2="102.47" gradientUnits="userSpaceOnUse"><stop stop-color="#f87d02"/><stop offset=".466" stop-color="#ffbe7c"/><stop offset="1" stop-color="#f87d02"/></linearGradient><linearGradient id="i" x1="943.989" x2="184.265" y1="145.5" y2="-64.553" gradientUnits="userSpaceOnUse"><stop stop-color="#ffa726"/><stop offset="1" stop-color="#f86902"/></linearGradient><linearGradient id="j" x1="943.988" x2="184.265" y1="145.5" y2="-64.554" gradientUnits="userSpaceOnUse"><stop stop-color="#ffa726"/><stop offset="1" stop-color="#f86902"/></linearGradient><linearGradient id="m" x1="235.772" x2="299.232" y1="79.171" y2="352.7" gradientUnits="userSpaceOnUse"><stop stop-color="#fff"/><stop offset="1" stop-color="#f89202"/></linearGradient><filter id="d" width="930.452" height="325.58" x="-19.725" y="-18" color-interpolation-filters="sRGB" filterUnits="userSpaceOnUse"><feFlood flood-opacity="0" result="BackgroundImageFix"/><feBlend in="SourceGraphic" in2="BackgroundImageFix" result="shape"/><feGaussianBlur result="effect1_foregroundBlur_6834_66507" stdDeviation="9"/></filter><filter id="e" width="178.218" height="113.614" x="735.091" y="186.59" color-interpolation-filters="sRGB" filterUnits="userSpaceOnUse"><feFlood flood-opacity="0" result="BackgroundImageFix"/><feBlend in="SourceGraphic" in2="BackgroundImageFix" result="shape"/><feGaussianBlur result="effect1_foregroundBlur_6834_66507" stdDeviation="5"/></filter><filter id="g" width="192.044" height="118.039" x="-45.731" y="-14.24" color-interpolation-filters="sRGB" filterUnits="userSpaceOnUse"><feFlood flood-opacity="0" result="BackgroundImageFix"/><feBlend in="SourceGraphic" in2="BackgroundImageFix" result="shape"/><feGaussianBlur result="effect1_foregroundBlur_6834_66507" stdDeviation="4"/></filter><filter id="l" width="829" height="229" x="32" y="31" color-interpolation-filters="sRGB" filterUnits="userSpaceOnUse"><feFlood flood-opacity="0" result="BackgroundImageFix"/><feBlend in="SourceGraphic" in2="BackgroundImageFix" result="shape"/><feGaussianBlur result="effect1_foregroundBlur_6834_66507" stdDeviation="5"/></filter><radialGradient id="a" cx="0" cy="0" r="1" gradientTransform="matrix(0 -145 446.5 0 446.5 145)" gradientUnits="userSpaceOnUse"><stop stop-color="#ffa726"/><stop offset="1" stop-color="#f87d02"/></radialGradient><radialGradient id="b" cx="0" cy="0" r="1" gradientTransform="matrix(0 -145 446.5 0 1339.5 435)" gradientUnits="userSpaceOnUse"><stop stop-color="#ffa726"/><stop offset="1" stop-color="#f87d02"/></radialGradient></defs></svg>