<svg xmlns="http://www.w3.org/2000/svg" xmlns:xlink="http://www.w3.org/1999/xlink" width="598" height="587" fill="none" viewBox="0 0 598 587"><path fill="url(#a)" d="M565.697 0c17.338 0 31.393 13.794 31.393 30.81v524.998c0 17.015-14.055 30.809-31.393 30.809H31.393C14.055 586.617 0 572.823 0 555.808V331.513c0-17.016 14.055-30.81 31.393-30.81h274.372V30.81c0-17.016 14.056-30.81 31.393-30.81z"/><mask id="c" width="598" height="587" x="0" y="0" maskUnits="userSpaceOnUse" style="mask-type:alpha"><path fill="url(#b)" d="M565.697 0c17.338 0 31.393 13.794 31.393 30.81v524.998c0 17.015-14.055 30.809-31.393 30.809H31.393C14.055 586.617 0 572.823 0 555.808V331.513c0-17.016 14.055-30.81 31.393-30.81h274.372V30.81c0-17.016 14.056-30.81 31.393-30.81z"/></mask><g mask="url(#c)"><g filter="url(#d)"><path fill="#b63a00" fill-opacity=".5" d="M308.276 413.467 0 586.618h599.601z"/></g><g filter="url(#e)"><path fill="url(#f)" d="M178.746 456.509 0 302.626v272.065z"/></g><g filter="url(#g)"><path fill="url(#h)" d="M298.229 293.925 421.29 415.931l22.603-279.752L298.229 20.95z"/></g><g filter="url(#i)"><path fill="url(#j)" d="M597.09 556.424 474.03 492.34l-22.602-339.544L597.09 12.94z"/></g><g filter="url(#k)"><path fill="url(#l)" fill-opacity=".5" d="m-4.253 547.197 47.993-26.388 40.241-1.377-35.145 81.959-30.877-9.672-26.624-16.51-13.684-22.028z"/></g><g filter="url(#m)"><path fill="url(#n)" fill-opacity=".8" d="m556.744 589.442-21.536-49.681 2.96-39.411 79.217 43.159-13.14 29.08-19.604 24.189-23.794 10.967z"/></g><g filter="url(#o)"><path fill="url(#p)" fill-opacity=".6" d="m617.181 29.577-43.322 33.275-39.555 7.394 21.975-86.267 32.02 4.93 28.882 12.323 16.952 19.719z"/></g><g filter="url(#q)"><path fill="url(#r)" d="m40.586 287.291 21.536 49.68-2.96 39.412-79.217-43.16 13.14-29.079 19.604-24.19 23.794-10.967z"/></g><g filter="url(#s)"><path fill="url(#t)" d="m338.817-14.029 21.536 49.681-2.96 39.411-79.217-43.16 13.139-29.078 19.604-24.19 23.795-10.967z"/></g></g><path fill="url(#u)" d="M528.025 35.123c17.338 0 31.393 13.794 31.393 30.81V520.75c0 17.015-14.055 30.809-31.393 30.809H68.435c-17.337 0-31.392-13.794-31.392-30.809V366.637c0-17.016 14.055-30.811 31.393-30.811h268.093V65.933c0-17.016 14.055-30.81 31.393-30.81z"/><g filter="url(#v)"><path stroke="url(#w)" stroke-width="3" d="M367.922 36.623h160.103c16.536 0 29.893 13.149 29.893 29.31V520.75c0 16.161-13.357 29.309-29.893 29.31H68.435c-16.535-.001-29.892-13.149-29.892-29.31V366.637l.01-.756c.408-15.813 13.605-28.555 29.883-28.555h269.593V65.933c0-15.909 12.943-28.898 29.12-29.3z"/></g><rect width="290" height="290" y="3" fill="url(#x)" rx="50"/><mask id="z" width="290" height="290" x="0" y="3" maskUnits="userSpaceOnUse" style="mask-type:alpha"><rect width="290" height="290" x="290" y="293" fill="url(#y)" rx="50" transform="rotate(-180 290 293)"/></mask><g mask="url(#z)"><g filter="url(#A)"><path fill="#d4d4d4" d="M289 293V3L-1 293z"/></g><g filter="url(#B)"><path fill="url(#C)" d="M219.063 240.187h-13.438S243.125 293 244.688 293h15.625c2.315 0 3.407-.27 5.625-.937 2.777-.836 3.917-.997 6.562-2.188 3.65-1.643 5.687-3.341 8.438-6.25 2.466-2.608 3.908-4.035 5.625-7.187 1.517-2.787 1.889-4.387 2.5-7.501.586-2.994.625-4.761.625-7.812v-26.562l-42.813-24.064v4.063l-2.187 6.875-3.75 5.312-4.375 4.688-6.875 5.937z"/></g><g filter="url(#D)"><path fill="url(#E)" fill-opacity=".9" d="M90.313 59.563h13.437S46.563-2.625 45-2.625H29.375c-2.316 0-3.408.27-5.625.937-2.778.836-3.918.997-6.563 2.188C13.537 2.143 11.5 3.84 8.75 6.75c-2.466 2.608-3.908 4.035-5.625 7.187-1.518 2.787-1.89 4.387-2.5 7.5C.038 24.433 0 26.2 0 29.25v26.562L62.5 89.25v-4.062l2.188-6.875L68.438 73l4.374-4.687 6.876-5.938z"/></g></g><rect width="208" height="208" x="41.25" y="43.625" fill="url(#F)" rx="50"/><mask id="H" width="209" height="209" x="41" y="43" maskUnits="userSpaceOnUse" style="mask-type:alpha"><rect width="207" height="207" x="41.75" y="44.125" stroke="url(#G)" rx="49.5"/></mask><g filter="url(#I)" mask="url(#H)"><rect width="203" height="203" x="43.5" y="46.5" stroke="url(#J)" stroke-width="5" rx="47.5"/></g><defs><linearGradient id="f" x1="89.373" x2="89.373" y1="302.626" y2="574.691" gradientUnits="userSpaceOnUse"><stop stop-color="#ce4f00"/><stop offset="1" stop-color="#f87d02"/></linearGradient><linearGradient id="h" x1="391.153" x2="391.153" y1="20.95" y2="293.308" gradientUnits="userSpaceOnUse"><stop stop-color="#ffa734"/><stop offset="1" stop-color="#ffb870"/></linearGradient><linearGradient id="j" x1="582.021" x2="575.974" y1="33.891" y2="530.547" gradientUnits="userSpaceOnUse"><stop stop-color="#ee5b00"/><stop offset="1" stop-color="#e05700"/></linearGradient><linearGradient id="l" x1="68.766" x2="11.857" y1="567.628" y2="532.394" gradientUnits="userSpaceOnUse"><stop stop-color="#f87d02"/><stop offset=".428" stop-color="#ffb061"/><stop offset=".639" stop-color="#ffb061"/><stop offset="1" stop-color="#f87d02"/></linearGradient><linearGradient id="n" x1="585.341" x2="545.35" y1="520.41" y2="573.52" gradientUnits="userSpaceOnUse"><stop stop-color="#e15801"/><stop offset=".428" stop-color="#ff8000"/><stop offset=".639" stop-color="#ff8000"/><stop offset="1" stop-color="#e15801"/></linearGradient><linearGradient id="p" x1="541.838" x2="603.65" y1="20.334" y2="46.417" gradientUnits="userSpaceOnUse"><stop stop-color="#f87d02"/><stop offset=".428" stop-color="#ffb061"/><stop offset=".639" stop-color="#ffb061"/><stop offset="1" stop-color="#f87d02"/></linearGradient><linearGradient id="r" x1="11.989" x2="51.98" y1="356.322" y2="303.212" gradientUnits="userSpaceOnUse"><stop stop-color="#f87d02"/><stop offset=".428" stop-color="#ffb061"/><stop offset=".639" stop-color="#ffb061"/><stop offset="1" stop-color="#f87d02"/></linearGradient><linearGradient id="t" x1="310.22" x2="350.21" y1="55.003" y2="1.893" gradientUnits="userSpaceOnUse"><stop stop-color="#f87d02"/><stop offset=".428" stop-color="#ffb061"/><stop offset=".639" stop-color="#ffb061"/><stop offset="1" stop-color="#f87d02"/></linearGradient><linearGradient id="u" x1="549.372" x2="371.727" y1="500.966" y2="252.551" gradientUnits="userSpaceOnUse"><stop stop-color="#fe9d21"/><stop offset="1" stop-color="#f86802"/></linearGradient><linearGradient id="w" x1="245.491" x2="582.077" y1="212.587" y2="616.874" gradientUnits="userSpaceOnUse"><stop stop-color="#fff2d2"/><stop offset="1" stop-color="#f87d02"/></linearGradient><linearGradient id="C" x1="245.625" x2="283.75" y1="286.125" y2="240.5" gradientUnits="userSpaceOnUse"><stop stop-color="#d4d4d4"/><stop offset=".543" stop-color="#e5e5e5"/><stop offset="1" stop-color="#d4d4d4"/></linearGradient><linearGradient id="E" x1="55.313" x2="10.313" y1="13.625" y2="58.625" gradientUnits="userSpaceOnUse"><stop stop-color="#e5e5e5"/><stop offset=".466" stop-color="#fff"/><stop offset="1" stop-color="#e5e5e5"/></linearGradient><linearGradient id="F" x1="273.158" x2="63.963" y1="147.625" y2="132.682" gradientUnits="userSpaceOnUse"><stop stop-color="#fff"/><stop offset="1" stop-color="#d4d4d4"/></linearGradient><linearGradient id="G" x1="91.07" x2="233.681" y1="81.613" y2="240.415" gradientUnits="userSpaceOnUse"><stop stop-color="#fff"/><stop offset="1" stop-color="#d4d4d4"/></linearGradient><linearGradient id="J" x1="90.82" x2="233.431" y1="81.988" y2="240.79" gradientUnits="userSpaceOnUse"><stop stop-color="#fff"/><stop offset="1" stop-color="#d4d4d4"/></linearGradient><filter id="d" width="619.602" height="193.15" x="-10" y="403.467" color-interpolation-filters="sRGB" filterUnits="userSpaceOnUse"><feFlood flood-opacity="0" result="BackgroundImageFix"/><feBlend in="SourceGraphic" in2="BackgroundImageFix" result="shape"/><feGaussianBlur result="effect1_foregroundBlur_6900_6136" stdDeviation="5"/></filter><filter id="e" width="198.746" height="292.065" x="-10" y="292.626" color-interpolation-filters="sRGB" filterUnits="userSpaceOnUse"><feFlood flood-opacity="0" result="BackgroundImageFix"/><feBlend in="SourceGraphic" in2="BackgroundImageFix" result="shape"/><feGaussianBlur result="effect1_foregroundBlur_6900_6136" stdDeviation="5"/></filter><filter id="g" width="165.664" height="414.98" x="288.229" y="10.95" color-interpolation-filters="sRGB" filterUnits="userSpaceOnUse"><feFlood flood-opacity="0" result="BackgroundImageFix"/><feBlend in="SourceGraphic" in2="BackgroundImageFix" result="shape"/><feGaussianBlur result="effect1_foregroundBlur_6900_6136" stdDeviation="5"/></filter><filter id="i" width="165.662" height="563.483" x="441.428" y="2.94" color-interpolation-filters="sRGB" filterUnits="userSpaceOnUse"><feFlood flood-opacity="0" result="BackgroundImageFix"/><feBlend in="SourceGraphic" in2="BackgroundImageFix" result="shape"/><feGaussianBlur result="effect1_foregroundBlur_6900_6136" stdDeviation="5"/></filter><filter id="k" width="146.33" height="121.96" x="-42.35" y="499.432" color-interpolation-filters="sRGB" filterUnits="userSpaceOnUse"><feFlood flood-opacity="0" result="BackgroundImageFix"/><feBlend in="SourceGraphic" in2="BackgroundImageFix" result="shape"/><feGaussianBlur result="effect1_foregroundBlur_6900_6136" stdDeviation="10"/></filter><filter id="m" width="122.178" height="147.396" x="515.207" y="480.35" color-interpolation-filters="sRGB" filterUnits="userSpaceOnUse"><feFlood flood-opacity="0" result="BackgroundImageFix"/><feBlend in="SourceGraphic" in2="BackgroundImageFix" result="shape"/><feGaussianBlur result="effect1_foregroundBlur_6900_6136" stdDeviation="10"/></filter><filter id="o" width="139.828" height="126.268" x="514.305" y="-36.022" color-interpolation-filters="sRGB" filterUnits="userSpaceOnUse"><feFlood flood-opacity="0" result="BackgroundImageFix"/><feBlend in="SourceGraphic" in2="BackgroundImageFix" result="shape"/><feGaussianBlur result="effect1_foregroundBlur_6900_6136" stdDeviation="10"/></filter><filter id="q" width="122.178" height="147.396" x="-40.055" y="248.987" color-interpolation-filters="sRGB" filterUnits="userSpaceOnUse"><feFlood flood-opacity="0" result="BackgroundImageFix"/><feBlend in="SourceGraphic" in2="BackgroundImageFix" result="shape"/><feGaussianBlur result="effect1_foregroundBlur_6900_6136" stdDeviation="10"/></filter><filter id="s" width="122.178" height="147.396" x="258.176" y="-52.332" color-interpolation-filters="sRGB" filterUnits="userSpaceOnUse"><feFlood flood-opacity="0" result="BackgroundImageFix"/><feBlend in="SourceGraphic" in2="BackgroundImageFix" result="shape"/><feGaussianBlur result="effect1_foregroundBlur_6900_6136" stdDeviation="10"/></filter><filter id="v" width="542.375" height="536.437" x="27.043" y="25.123" color-interpolation-filters="sRGB" filterUnits="userSpaceOnUse"><feFlood flood-opacity="0" result="BackgroundImageFix"/><feBlend in="SourceGraphic" in2="BackgroundImageFix" result="shape"/><feGaussianBlur result="effect1_foregroundBlur_6900_6136" stdDeviation="5"/></filter><filter id="A" width="326" height="326" x="-19" y="-15" color-interpolation-filters="sRGB" filterUnits="userSpaceOnUse"><feFlood flood-opacity="0" result="BackgroundImageFix"/><feBlend in="SourceGraphic" in2="BackgroundImageFix" result="shape"/><feGaussianBlur result="effect1_foregroundBlur_6900_6136" stdDeviation="9"/></filter><filter id="B" width="104.062" height="102.501" x="195.625" y="200.499" color-interpolation-filters="sRGB" filterUnits="userSpaceOnUse"><feFlood flood-opacity="0" result="BackgroundImageFix"/><feBlend in="SourceGraphic" in2="BackgroundImageFix" result="shape"/><feGaussianBlur result="effect1_foregroundBlur_6900_6136" stdDeviation="5"/></filter><filter id="D" width="119.75" height="107.875" x="-8" y="-10.625" color-interpolation-filters="sRGB" filterUnits="userSpaceOnUse"><feFlood flood-opacity="0" result="BackgroundImageFix"/><feBlend in="SourceGraphic" in2="BackgroundImageFix" result="shape"/><feGaussianBlur result="effect1_foregroundBlur_6900_6136" stdDeviation="4"/></filter><filter id="I" width="228" height="228" x="31" y="34" color-interpolation-filters="sRGB" filterUnits="userSpaceOnUse"><feFlood flood-opacity="0" result="BackgroundImageFix"/><feBlend in="SourceGraphic" in2="BackgroundImageFix" result="shape"/><feGaussianBlur result="effect1_foregroundBlur_6900_6136" stdDeviation="5"/></filter><radialGradient id="a" cx="0" cy="0" r="1" gradientTransform="matrix(0 -142.957 298.545 0 298.545 443.66)" gradientUnits="userSpaceOnUse"><stop stop-color="#ffa726"/><stop offset="1" stop-color="#f87d02"/></radialGradient><radialGradient id="b" cx="0" cy="0" r="1" gradientTransform="matrix(0 -142.957 298.545 0 298.545 443.66)" gradientUnits="userSpaceOnUse"><stop stop-color="#ffa726"/><stop offset="1" stop-color="#f87d02"/></radialGradient><radialGradient id="x" cx="0" cy="0" r="1" gradientTransform="matrix(0 -145 145 0 145 148)" gradientUnits="userSpaceOnUse"><stop stop-color="#fff"/><stop offset="1" stop-color="#e5e5e5"/></radialGradient><radialGradient id="y" cx="0" cy="0" r="1" gradientTransform="matrix(0 -145 145 0 435 438)" gradientUnits="userSpaceOnUse"><stop stop-color="#bdbdbd"/><stop offset="1" stop-color="#525252"/></radialGradient></defs></svg>