<svg width="290" height="290" viewBox="0 0 290 290" fill="none" xmlns="http://www.w3.org/2000/svg">
<rect x="0.000976562" width="290" height="290" rx="50" fill="url(#paint0_radial_6787_67114)"/>
<mask id="mask0_6787_67114" style="mask-type:alpha" maskUnits="userSpaceOnUse" x="0" y="0" width="290" height="290">
<rect x="290" y="290" width="290" height="290" rx="50" transform="rotate(-180 290 290)" fill="url(#paint1_radial_6787_67114)"/>
</mask>
<g mask="url(#mask0_6787_67114)">
<g filter="url(#filter0_f_6787_67114)">
<path d="M296.25 303.75L296.25 9.44115e-07L-0.625001 303.75L296.25 303.75Z" fill="#D4D4D4"/>
</g>
<g filter="url(#filter1_f_6787_67114)">
<path d="M219.064 237.187L205.626 237.187C205.626 237.187 243.126 290 244.689 290L249.129 290C252.68 290 255.546 290 260.314 290C262.629 290 263.721 289.73 265.938 289.063C268.716 288.227 269.856 288.066 272.501 286.875C276.151 285.232 278.188 283.534 280.939 280.625C283.405 278.017 284.847 276.59 286.563 273.438C288.081 270.651 288.453 269.051 289.063 265.937C289.65 262.943 289.688 261.176 289.688 258.125L289.688 231.563L246.876 207.499L246.876 211.562L244.689 218.437L240.939 223.749L236.564 228.437L229.689 234.374L219.064 237.187Z" fill="url(#paint2_linear_6787_67114)"/>
</g>
<g filter="url(#filter2_f_6787_67114)">
<path d="M90.3125 56.5627L103.75 56.5627C103.75 56.5627 46.5625 -5.62501 44.9999 -5.625L40.5594 -5.62495C37.0086 -5.62491 34.1422 -5.62488 29.3749 -5.62496C27.0594 -5.62499 25.9674 -5.35457 23.75 -4.68756C20.9721 -3.85194 19.8325 -3.69102 17.1874 -2.50013C13.5371 -0.856685 11.5005 0.841319 8.7499 3.74986C6.28371 6.35768 4.84169 7.78531 3.125 10.9374C1.6074 13.724 1.23507 15.324 0.625 18.4378C0.0383919 21.4318 -9.19101e-08 23.1989 -1.01639e-07 26.2499L-1.86338e-07 52.8124L62.5 86.2502L62.5 82.1877L64.6875 75.3127L68.4375 70.0002L72.8125 65.3127L79.6875 59.3752L90.3125 56.5627Z" fill="url(#paint3_linear_6787_67114)" fill-opacity="0.9"/>
</g>
</g>
<rect x="41.001" y="41" width="208" height="208" rx="50" fill="url(#paint4_linear_6787_67114)"/>
<mask id="mask1_6787_67114" style="mask-type:alpha" maskUnits="userSpaceOnUse" x="41" y="41" width="209" height="208">
<rect x="41.501" y="41.5" width="207" height="207" rx="49.5" stroke="url(#paint5_linear_6787_67114)"/>
</mask>
<g mask="url(#mask1_6787_67114)">
<g filter="url(#filter3_f_6787_67114)">
<rect x="43.501" y="43.5" width="203" height="203" rx="47.5" stroke="url(#paint6_linear_6787_67114)" stroke-width="5"/>
</g>
</g>
<defs>
<filter id="filter0_f_6787_67114" x="-18.625" y="-18" width="332.875" height="339.75" filterUnits="userSpaceOnUse" color-interpolation-filters="sRGB">
<feFlood flood-opacity="0" result="BackgroundImageFix"/>
<feBlend mode="normal" in="SourceGraphic" in2="BackgroundImageFix" result="shape"/>
<feGaussianBlur stdDeviation="9" result="effect1_foregroundBlur_6787_67114"/>
</filter>
<filter id="filter1_f_6787_67114" x="195.626" y="197.499" width="104.062" height="102.501" filterUnits="userSpaceOnUse" color-interpolation-filters="sRGB">
<feFlood flood-opacity="0" result="BackgroundImageFix"/>
<feBlend mode="normal" in="SourceGraphic" in2="BackgroundImageFix" result="shape"/>
<feGaussianBlur stdDeviation="5" result="effect1_foregroundBlur_6787_67114"/>
</filter>
<filter id="filter2_f_6787_67114" x="-8" y="-13.625" width="119.75" height="107.875" filterUnits="userSpaceOnUse" color-interpolation-filters="sRGB">
<feFlood flood-opacity="0" result="BackgroundImageFix"/>
<feBlend mode="normal" in="SourceGraphic" in2="BackgroundImageFix" result="shape"/>
<feGaussianBlur stdDeviation="4" result="effect1_foregroundBlur_6787_67114"/>
</filter>
<filter id="filter3_f_6787_67114" x="31.001" y="31" width="228" height="228" filterUnits="userSpaceOnUse" color-interpolation-filters="sRGB">
<feFlood flood-opacity="0" result="BackgroundImageFix"/>
<feBlend mode="normal" in="SourceGraphic" in2="BackgroundImageFix" result="shape"/>
<feGaussianBlur stdDeviation="5" result="effect1_foregroundBlur_6787_67114"/>
</filter>
<radialGradient id="paint0_radial_6787_67114" cx="0" cy="0" r="1" gradientUnits="userSpaceOnUse" gradientTransform="translate(145.001 145) rotate(-90) scale(145)">
<stop stop-color="white"/>
<stop offset="1" stop-color="#E5E5E5"/>
</radialGradient>
<radialGradient id="paint1_radial_6787_67114" cx="0" cy="0" r="1" gradientUnits="userSpaceOnUse" gradientTransform="translate(435 435) rotate(-90) scale(145 145)">
<stop stop-color="#FFA726"/>
<stop offset="1" stop-color="#F87D02"/>
</radialGradient>
<linearGradient id="paint2_linear_6787_67114" x1="245.626" y1="283.125" x2="283.751" y2="237.5" gradientUnits="userSpaceOnUse">
<stop stop-color="#D4D4D4"/>
<stop offset="0.543269" stop-color="#E5E5E5"/>
<stop offset="1" stop-color="#D4D4D4"/>
</linearGradient>
<linearGradient id="paint3_linear_6787_67114" x1="55.3125" y1="10.6253" x2="10.3125" y2="55.6253" gradientUnits="userSpaceOnUse">
<stop stop-color="#E5E5E5"/>
<stop offset="0.466346" stop-color="white"/>
<stop offset="1" stop-color="#E5E5E5"/>
</linearGradient>
<linearGradient id="paint4_linear_6787_67114" x1="272.909" y1="145" x2="63.7136" y2="130.057" gradientUnits="userSpaceOnUse">
<stop stop-color="white"/>
<stop offset="1" stop-color="#D4D4D4"/>
</linearGradient>
<linearGradient id="paint5_linear_6787_67114" x1="90.8213" y1="78.988" x2="233.432" y2="237.79" gradientUnits="userSpaceOnUse">
<stop stop-color="white"/>
<stop offset="1" stop-color="#D4D4D4"/>
</linearGradient>
<linearGradient id="paint6_linear_6787_67114" x1="90.8213" y1="78.988" x2="233.432" y2="237.79" gradientUnits="userSpaceOnUse">
<stop stop-color="white"/>
<stop offset="1" stop-color="#D4D4D4"/>
</linearGradient>
</defs>
</svg>
