<svg xmlns="http://www.w3.org/2000/svg" width="24" height="24" viewBox="0 0 24 24" fill="none">
  <path d="M20.7734 19.2461C20.9503 19.2461 21.12 19.3163 21.2451 19.4414C21.3702 19.5665 21.4404 19.7362 21.4404 19.9131V21.582C21.4404 21.7589 21.3701 21.9286 21.2451 22.0537C21.12 22.1788 20.9503 22.2499 20.7734 22.25H3.24902C3.07215 22.2499 2.90242 22.1788 2.77734 22.0537C2.65237 21.9286 2.58203 21.7589 2.58203 21.582V19.9131C2.5821 19.7362 2.65227 19.5665 2.77734 19.4414C2.90242 19.3163 3.07215 19.2462 3.24902 19.2461C3.42587 19.2461 3.5956 19.3164 3.7207 19.4414C3.84578 19.5665 3.91693 19.7362 3.91699 19.9131V20.915H20.1064V19.9131C20.1065 19.7362 20.1767 19.5665 20.3018 19.4414C20.4269 19.3164 20.5966 19.2461 20.7734 19.2461Z" fill="currentColor" stroke="currentColor" stroke-width="0.5"/>
  <path d="M12.0127 1.75C14.1959 1.75012 16.4365 3.25858 16.4365 6.14453C16.4365 6.48101 16.3408 6.8444 16.2012 7.22754C16.0611 7.61188 15.8673 8.03779 15.6572 8.50098L15.6582 8.50195C15.1467 9.63073 14.5999 10.8435 14.5049 12.0049C14.458 12.5792 14.5222 13.1321 14.7529 13.6494C14.976 14.1495 15.3623 14.6303 15.9795 15.0732H19.9414C21.2297 15.0734 22.2773 16.1218 22.2773 17.4102V19.9131C22.2773 20.09 22.2071 20.2597 22.082 20.3848C21.9569 20.5098 21.7872 20.58 21.6104 20.5801H2.41699C2.24012 20.58 2.07039 20.5098 1.94531 20.3848C1.8203 20.2597 1.75 20.09 1.75 19.9131V17.4102C1.75 16.1218 2.79766 15.0734 4.08594 15.0732H8.04785C8.6664 14.6294 9.0536 14.1485 9.27734 13.6484C9.50879 13.1311 9.57411 12.5786 9.52734 12.0049C9.43276 10.8448 8.88544 9.63368 8.37305 8.50684C8.16229 8.04281 7.96784 7.61583 7.82715 7.23047C7.68695 6.84645 7.59182 6.48251 7.5918 6.14453C7.5918 3.2586 9.8305 1.75 12.0127 1.75ZM12.0127 3.08496C11.2598 3.08496 10.4857 3.32752 9.9043 3.82617C9.32877 4.3198 8.92578 5.07707 8.92578 6.14453C8.92581 6.29735 8.99195 6.54322 9.11914 6.87402C9.24307 7.1963 9.41093 7.56594 9.58789 7.95508C10.1021 9.08623 10.7751 10.5595 10.8652 12.0479C10.9106 12.7979 10.8089 13.5595 10.4619 14.2881C10.1579 14.9262 9.67119 15.5273 8.95117 16.0684L8.62793 16.2969C8.51851 16.3694 8.39004 16.4081 8.25879 16.4082H4.08594C3.53401 16.4083 3.08496 16.8582 3.08496 17.4102V19.2461H20.9434V17.4102C20.9434 16.8582 20.4934 16.4083 19.9414 16.4082H15.7686C15.6373 16.4082 15.5087 16.3696 15.3994 16.2969C14.5008 15.6998 13.916 15.0193 13.5693 14.29C13.223 13.5616 13.1216 12.7995 13.167 12.0488C13.2572 10.5593 13.929 9.08326 14.4424 7.9502C14.6184 7.5618 14.7859 7.19358 14.9092 6.87207C15.0358 6.54178 15.1015 6.29645 15.1016 6.14453C15.1016 5.07712 14.698 4.31981 14.1221 3.82617C13.5403 3.32772 12.7663 3.08502 12.0127 3.08496Z" fill="currentColor" stroke="currentColor" stroke-width="0.5"/>
</svg>