<svg xmlns="http://www.w3.org/2000/svg" width="24" height="24" viewBox="0 0 24 24" fill="none">
  <path d="M18.7016 10.294L14.1577 11.1152C13.3092 10.1115 11.185 7.55125 9.58643 5.66798C8.23822 4.07969 6.92505 3.82054 5.97207 3.96442C5.80097 4.00436 5.63684 4.04307 5.48047 4.08036C5.63053 4.03175 5.79509 3.99113 5.97207 3.96442C9.23557 3.20273 15.0364 2 17.9078 2C21.6853 2 22.397 5.36688 21.8222 7.63884C21.3623 9.4564 19.5502 10.1663 18.7016 10.294Z" fill="url(#paint0_linear_7629_23807)"/>
  <path d="M9.81866 15.8958L11.4236 11.5534C12.7165 11.317 15.939 10.7417 18.368 10.2926C20.7971 9.84354 21.5298 8.626 21.8106 7.69531C20.8972 10.79 18.9116 16.7147 17.4074 19.3357C15.5271 22.6119 12.2527 21.5534 10.5683 19.9239C9.22081 18.6204 9.5071 16.6954 9.81866 15.8958Z" fill="url(#paint1_linear_7629_23807)"/>
  <path d="M9.44152 5.38978L12.3692 8.97751C11.9249 10.2145 10.8288 13.27 9.99846 15.5965C9.16806 17.923 9.85608 19.1683 10.5202 19.8782C8.30156 17.5353 4.17067 12.8443 2.65825 10.228C0.767723 6.95761 3.32642 4.65643 5.58106 4.01703C7.38477 3.50552 8.90625 4.71907 9.44152 5.38978Z" fill="url(#paint2_linear_7629_23807)"/>
  <defs>
    <linearGradient id="paint0_linear_7629_23807" x1="11.9746" y1="2.99414" x2="22.631" y2="13.1859" gradientUnits="userSpaceOnUse">
      <stop stop-color="#707070"/>
      <stop offset="0.596154" stop-color="#474747"/>
    </linearGradient>
    <linearGradient id="paint1_linear_7629_23807" x1="2.40756" y1="12.7932" x2="21.2011" y2="1.5898" gradientUnits="userSpaceOnUse">
      <stop offset="0.221154"/>
      <stop offset="0.798077" stop-color="#ADADAD"/>
    </linearGradient>
    <linearGradient id="paint2_linear_7629_23807" x1="9.5919" y1="6.25649" x2="7.9796" y2="18.2008" gradientUnits="userSpaceOnUse">
      <stop stop-color="#151515"/>
      <stop offset="0.557692" stop-color="#5C5C5C"/>
    </linearGradient>
  </defs>
</svg>