<svg xmlns="http://www.w3.org/2000/svg" width="24" height="24" viewBox="0 0 24 24" fill="none">
  <path d="M18.7055 10.294L14.1616 11.1152C13.3131 10.1115 11.1889 7.55125 9.59033 5.66798C8.24213 4.07969 6.92896 3.82054 5.97598 3.96442C5.80488 4.00436 5.64075 4.04307 5.48438 4.08036C5.63444 4.03175 5.799 3.99113 5.97598 3.96442C9.23948 3.20273 15.0403 2 17.9117 2C21.6892 2 22.4009 5.36688 21.8261 7.63884C21.3662 9.4564 19.5541 10.1663 18.7055 10.294Z" fill="url(#paint0_linear_7461_154150)"/>
  <path d="M9.81476 15.8958L11.4197 11.5534C12.7126 11.317 15.935 10.7417 18.3641 10.2926C20.7932 9.84354 21.5259 8.626 21.8067 7.69531C20.8933 10.79 18.9077 16.7147 17.4034 19.3357C15.5232 22.6119 12.2488 21.5534 10.5644 19.9239C9.2169 18.6204 9.50319 16.6954 9.81476 15.8958Z" fill="url(#paint1_linear_7461_154150)"/>
  <path d="M9.44152 5.38978L12.3692 8.97751C11.9249 10.2145 10.8288 13.27 9.99846 15.5965C9.16806 17.923 9.85608 19.1683 10.5202 19.8782C8.30156 17.5353 4.17067 12.8443 2.65825 10.228C0.767723 6.95761 3.32642 4.65643 5.58106 4.01703C7.38477 3.50552 8.90625 4.71907 9.44152 5.38978Z" fill="url(#paint2_linear_7461_154150)"/>
  <defs>
    <linearGradient id="paint0_linear_7461_154150" x1="11.9785" y1="2.99414" x2="22.6349" y2="13.1859" gradientUnits="userSpaceOnUse">
      <stop stop-color="white"/>
      <stop offset="0.596154" stop-color="#7C7C7C"/>
    </linearGradient>
    <linearGradient id="paint1_linear_7461_154150" x1="2.40365" y1="12.7932" x2="21.1972" y2="1.5898" gradientUnits="userSpaceOnUse">
      <stop offset="0.221154" stop-color="white"/>
      <stop offset="0.798077" stop-color="#5E5E5E"/>
    </linearGradient>
    <linearGradient id="paint2_linear_7461_154150" x1="9.5919" y1="6.25649" x2="7.9796" y2="18.2008" gradientUnits="userSpaceOnUse">
      <stop stop-color="#575757"/>
      <stop offset="0.557692" stop-color="#9E9E9E"/>
    </linearGradient>
  </defs>
</svg>