<svg xmlns="http://www.w3.org/2000/svg" width="24" height="24" viewBox="0 0 24 24" fill="none">
  <g clip-path="url(#clip0_7629_48735)">
    <path d="M12 0.21875C16.8337 0.21875 20.7577 4.14288 20.7578 8.97656C20.7578 11.9245 19.2976 14.533 17.0635 16.1201L19.3291 21.1611C19.4113 21.3443 19.3866 21.5576 19.2656 21.7178C19.1445 21.878 18.9458 21.9598 18.7471 21.9307L16.4502 21.5928L15.1768 23.5342C15.0666 23.702 14.8739 23.797 14.6738 23.7812C14.4735 23.7654 14.2971 23.6412 14.2148 23.458L12 18.5264L9.78516 23.458C9.70293 23.6411 9.52739 23.7653 9.32715 23.7812C9.12691 23.7972 8.93342 23.7021 8.82324 23.5342L7.54883 21.5928L5.25293 21.9307C5.05427 21.9597 4.85543 21.878 4.73438 21.7178C4.61347 21.5576 4.58965 21.3442 4.67188 21.1611L6.93555 16.1191C4.70214 14.532 3.24219 11.9239 3.24219 8.97656C3.24229 4.14294 7.16638 0.218851 12 0.21875ZM16.1191 16.7012C15.1221 17.2343 14.0119 17.5829 12.832 17.6943L14.8076 22.0918L15.7236 20.6973C15.841 20.5185 16.051 20.4232 16.2627 20.4541L17.9141 20.6963L16.1191 16.7012ZM6.08594 20.6963L7.7373 20.4541C7.94907 20.423 8.15996 20.5184 8.27734 20.6973L9.19238 22.0908L11.167 17.6943C9.98723 17.5828 8.87676 17.2345 7.87988 16.7012L6.08594 20.6963ZM12 1.31836C7.77368 1.31846 4.3419 4.75024 4.3418 8.97656C4.3418 13.203 7.77361 16.6347 12 16.6348C16.2265 16.6348 19.6582 13.203 19.6582 8.97656C19.6581 4.75018 16.2264 1.31836 12 1.31836ZM12 3.62402C12.2152 3.62402 12.4105 3.74964 12.5 3.94531L13.7158 6.60547L16.623 6.94043C16.8368 6.96506 17.0165 7.11258 17.083 7.31738C17.1494 7.52199 17.0912 7.74695 16.9326 7.89258L14.7773 9.87012L15.3574 12.7383C15.4001 12.9493 15.3158 13.1665 15.1416 13.293C14.9675 13.4194 14.7352 13.4328 14.5479 13.3271L12 11.8887L9.45215 13.3271C9.26471 13.4328 9.03252 13.4195 8.8584 13.293C8.68427 13.1665 8.5999 12.9493 8.64258 12.7383L9.22266 9.87109L7.06836 7.89258C6.90983 7.74698 6.85067 7.52197 6.91699 7.31738C6.98351 7.11263 7.16326 6.96512 7.37695 6.94043L10.2832 6.60547L11.5 3.94531C11.5895 3.74966 11.7848 3.6241 12 3.62402ZM11.1553 7.3457C11.0852 7.49907 10.9491 7.61017 10.7881 7.65039L10.7178 7.66309L8.69727 7.89551L10.1953 9.27051C10.3371 9.4008 10.4004 9.59643 10.3623 9.78516L9.95898 11.7764L11.7295 10.7783C11.8972 10.6837 12.1028 10.6837 12.2705 10.7783L14.04 11.7764L13.6377 9.78516C13.5996 9.59643 13.6629 9.40081 13.8047 9.27051L15.3027 7.89551L13.2822 7.66309C13.0912 7.64091 12.9258 7.52072 12.8457 7.3457L12 5.49609L11.1553 7.3457Z" fill="currentColor" stroke="currentColor" stroke-width="0.5"/>
  </g>
  <defs>
    <clipPath id="clip0_7629_48735">
      <rect width="24" height="24" fill="white"/>
    </clipPath>
  </defs>
</svg>