<svg xmlns="http://www.w3.org/2000/svg" width="24" height="24" viewBox="0 0 24 24" fill="none">
  <path d="M11.7256 2.00195C11.9031 1.93232 12.1008 1.93244 12.2783 2.00195H12.2793L21.5811 5.72363L21.6826 5.77246C21.909 5.90383 22.0498 6.15125 22.0498 6.41699V9.20801C22.0497 9.62148 21.7161 9.95486 21.3027 9.95508H20.1895V17.7637H21.3027C21.7161 17.7639 22.0495 18.0974 22.0498 18.5107V21.3018C22.0498 21.7153 21.7162 22.0496 21.3027 22.0498H2.69727C2.28379 22.0496 1.9502 21.7153 1.9502 21.3018V18.5107C1.95045 18.0974 2.28395 17.7639 2.69727 17.7637H3.81055V9.95508H2.69727C2.28386 9.95486 1.95031 9.62148 1.9502 9.20801V6.41699C1.9502 6.11362 2.13366 5.83391 2.42285 5.72363L11.7256 2.00195ZM3.44531 20.5547H20.5547V19.2588H3.44531V20.5547ZM16.4688 17.7637H18.6943V9.95508H16.4688V17.7637ZM12.748 17.7637H14.9736V9.95508H12.748V17.7637ZM9.02637 17.7637H11.252V9.95508H9.02637V17.7637ZM5.30566 17.7637H7.53125V9.95508H5.30566V17.7637ZM3.44531 6.9248V8.45996H20.5547V6.9248L12 3.50195L3.44531 6.9248Z" fill="currentColor" stroke="currentColor" stroke-width="0.1"/>
</svg>