<svg width="90" height="17" viewBox="0 0 90 17" fill="none" xmlns="http://www.w3.org/2000/svg">
<path d="M0 13.6886H2.64106V5.22636L5.22636 2.64106H14.0507V0H4.13141L0.00506953 4.12634L0.0101383 4.13141H0V13.6886Z" fill="white"/>
<rect y="13.3984" width="14.1231" height="2.67978" fill="white"/>
<rect x="68.4375" width="16.0787" height="2.67977" transform="rotate(90 68.4375 0)" fill="white"/>
<path d="M74.0859 2.68066L59.9628 2.68066L63.5117 0.000888138L74.0859 0.00088954L74.0859 2.68066Z" fill="white"/>
<rect x="38.457" width="16.0787" height="2.67977" transform="rotate(90 38.457 0)" fill="white"/>
<path d="M44.1094 2.68066L29.9862 2.68066L33.5351 0.000888138L44.1094 0.00088954L44.1094 2.68066Z" fill="white"/>
<path d="M14.9883 13.6886H17.6293V5.22636L20.2146 2.64106H26.5765V0H19.1197L14.9934 4.12634L14.9984 4.13141H14.9883V13.6886Z" fill="white"/>
<rect x="14.9883" y="13.3984" width="14.1231" height="2.67978" fill="white"/>
<rect x="29.1133" width="16.0787" height="2.67977" transform="rotate(90 29.1133 0)" fill="white"/>
<path d="M74.957 13.6886H77.5981V5.22636L80.1834 2.64106H86.5452V0H79.0884L74.9621 4.12634L74.9672 4.13141H74.957V13.6886Z" fill="white"/>
<rect x="74.957" y="13.3984" width="14.1231" height="2.67978" fill="white"/>
<rect x="89.082" width="16.0787" height="2.67977" transform="rotate(90 89.082 0)" fill="white"/>
<path d="M44.9766 16.0787H47.6176V5.20292L50.2029 2.62922H56.5648V0H49.108L44.9816 4.10784L44.9867 4.11288H44.9766V16.0787Z" fill="white"/>
<rect x="57.293" y="9.4873" width="10.6467" height="2.67977" transform="rotate(-180 57.293 9.4873)" fill="white"/>
<rect x="59.0977" width="16.0787" height="2.67977" transform="rotate(90 59.0977 0)" fill="white"/>
</svg>
