<svg width="224" height="224" viewBox="0 0 224 224" fill="none" xmlns="http://www.w3.org/2000/svg">
<rect width="224" height="224" rx="30" fill="white"/>
<rect width="224" height="224" rx="30" fill="white"/>
<path d="M105.674 121.857H136.526L134.216 145H126.876L128.64 128.042H105.133L105.674 121.857Z" fill="#6F00B6"/>
<path d="M139.881 89.0037L136.739 118.32H129.232L132.374 89.0037H139.881Z" fill="#6F00B6"/>
<path d="M164.436 96.5629H148.871L149.396 90.6011H164.961L164.436 96.5629Z" fill="#6F00B6"/>
<path d="M168.079 105.121L168.592 99.3241H143.851L143.338 105.121H148.562L148.523 105.564C146.301 106.778 145.068 108.784 144.822 111.583C144.688 113.129 145.007 114.537 145.782 115.806C146.558 117.075 147.73 118.089 149.293 118.843C150.855 119.596 152.675 119.973 154.751 119.973C156.827 119.973 158.714 119.596 160.41 118.843C162.107 118.089 163.457 117.075 164.456 115.806C165.461 114.537 166.025 113.129 166.164 111.583C166.41 108.784 165.528 106.778 163.524 105.564L163.564 105.121H168.067H168.079ZM159.685 109.538L159.606 110.419C159.5 111.599 159.054 112.497 158.256 113.124C157.458 113.75 156.47 114.06 155.281 114.06C154.092 114.06 153.16 113.75 152.474 113.124C151.787 112.497 151.497 111.599 151.598 110.419L151.676 109.538C151.782 108.363 152.228 107.449 153.027 106.806C153.825 106.163 154.818 105.841 156.001 105.841C157.184 105.841 158.122 106.163 158.808 106.806C159.495 107.449 159.785 108.363 159.679 109.538H159.685Z" fill="#6F00B6"/>
<path d="M179.037 124.855C176.969 122.749 173.957 121.696 170 121.696C167.37 121.696 165.088 122.173 163.155 123.131C161.216 124.09 159.704 125.448 158.614 127.21C157.524 128.972 156.906 131.028 156.771 133.362C156.636 135.7 157.013 137.74 157.9 139.486C158.788 141.226 160.143 142.578 161.969 143.537C163.796 144.495 166.021 144.972 168.646 144.972C171.27 144.972 173.558 144.495 175.491 143.537C177.424 142.578 178.93 141.231 180.009 139.486C181.089 137.74 181.69 135.7 181.83 133.362C182.038 129.793 181.105 126.955 179.037 124.849V124.855ZM175.913 132.431L175.868 133.195C175.789 134.553 175.176 135.673 174.041 136.543C172.9 137.413 171.231 137.851 169.022 137.851C166.814 137.851 165.156 137.413 164.116 136.543C163.076 135.673 162.599 134.553 162.677 133.195L162.722 132.431C162.801 131.073 163.408 129.942 164.549 129.05C165.69 128.158 167.376 127.709 169.607 127.709C171.838 127.709 173.468 128.147 174.491 129.017C175.513 129.887 175.985 131.023 175.901 132.431H175.913Z" fill="#6F00B6"/>
<path d="M188.733 89L185.999 120.085H178.883L179.955 107.881H176.567L175.607 118.754H168.547L171.103 89.7149H178.163L177.097 101.807H180.49L181.618 89H188.733Z" fill="#6F00B6"/>
<path d="M98.6429 91.9303H127.173L126.637 98.0042H118.243L102.058 118.398H93.1289L109.961 98.0042H98.1127L98.6429 91.9303Z" fill="#6F00B6"/>
<path d="M109.869 103.989L117.716 117.29H127.17L118.771 103.989H109.869Z" fill="#6F00B6"/>
<path fill-rule="evenodd" clip-rule="evenodd" d="M84.0841 115.91C83.8271 117.459 82.4795 118.725 79.7844 121.256L64.3651 135.737C61.9672 137.989 60.7684 139.115 59.325 139.356C58.8571 139.434 58.3802 139.443 57.9098 139.384C56.4577 139.199 55.2139 138.121 52.7262 135.965L37.2445 122.546C35.7044 121.211 34.9344 120.544 35.0044 119.937C35.026 119.75 35.0933 119.57 35.2006 119.414C35.5482 118.907 36.5753 118.889 38.6295 118.854L58.8564 118.501C59.2607 118.493 59.463 118.49 59.5911 118.595C59.6321 118.628 59.6667 118.669 59.6936 118.714C59.7769 118.856 59.7401 119.053 59.6662 119.445L58.9556 123.227C58.65 124.854 58.4971 125.668 58.9653 125.996C59.4333 126.324 60.1607 125.914 61.6156 125.093L76.0378 116.954C77.4526 116.156 78.1599 115.757 78.1599 115.156C78.1599 114.555 77.4526 114.156 76.0378 113.357L61.6156 105.219C60.1607 104.398 59.4333 103.987 58.9653 104.316C58.4971 104.644 58.65 105.457 58.9556 107.084L59.6654 110.862C59.7393 111.255 59.7762 111.451 59.6928 111.593C59.6662 111.639 59.6314 111.679 59.5904 111.713C59.4624 111.818 59.2601 111.814 58.856 111.807L38.6316 111.462C36.5767 111.426 35.5492 111.409 35.2015 110.903C35.0941 110.746 35.0267 110.567 35.0051 110.379C34.9349 109.773 35.7051 109.105 37.2455 107.769L52.7261 94.3477C55.2137 92.191 56.4577 91.1126 57.9098 90.928C58.3802 90.8682 58.8573 90.8775 59.3252 90.9557C60.7686 91.1968 61.9677 92.3229 64.3659 94.5752L79.7844 109.055C82.4795 111.586 83.8271 112.852 84.0841 114.401C84.1671 114.901 84.1671 115.41 84.0841 115.91Z" fill="#6F00B6"/>
</svg>
