<svg width="244" height="244" viewBox="0 0 244 244" fill="none" xmlns="http://www.w3.org/2000/svg">
<g filter="url(#filter0_d_7798_101090)">
<rect x="10" y="10" width="224" height="224" rx="30" fill="white" shape-rendering="crispEdges"/>
<path d="M115.807 126.857H146.659L144.348 150H137.009L138.773 133.042H115.266L115.807 126.857Z" fill="#6F00B6"/>
<path d="M150.014 94.0037L146.872 123.32H139.365L142.507 94.0037H150.014Z" fill="#6F00B6"/>
<path d="M174.569 101.563H159.004L159.528 95.6011H175.094L174.569 101.563Z" fill="#6F00B6"/>
<path d="M178.211 110.121L178.725 104.324H153.984L153.471 110.121H158.694L158.655 110.564C156.434 111.778 155.201 113.784 154.955 116.583C154.821 118.129 155.139 119.537 155.915 120.806C156.691 122.075 157.863 123.089 159.426 123.843C160.988 124.596 162.808 124.973 164.884 124.973C166.96 124.973 168.846 124.596 170.543 123.843C172.24 123.089 173.59 122.075 174.589 120.806C175.594 119.537 176.157 118.129 176.297 116.583C176.542 113.784 175.661 111.778 173.657 110.564L173.696 110.121H178.2H178.211ZM169.817 114.538L169.739 115.419C169.633 116.599 169.187 117.497 168.389 118.124C167.591 118.75 166.603 119.06 165.414 119.06C164.225 119.06 163.293 118.75 162.607 118.124C161.92 117.497 161.63 116.599 161.731 115.419L161.809 114.538C161.915 113.363 162.361 112.449 163.159 111.806C163.957 111.163 164.951 110.841 166.134 110.841C167.317 110.841 168.255 111.163 168.941 111.806C169.628 112.449 169.918 113.363 169.812 114.538H169.817Z" fill="#6F00B6"/>
<path d="M189.17 129.855C187.102 127.749 184.089 126.696 180.133 126.696C177.503 126.696 175.221 127.173 173.288 128.131C171.349 129.09 169.837 130.448 168.747 132.21C167.657 133.972 167.039 136.028 166.904 138.362C166.769 140.7 167.145 142.74 168.033 144.486C168.921 146.226 170.276 147.578 172.102 148.537C173.929 149.495 176.154 149.972 178.779 149.972C181.403 149.972 183.69 149.495 185.624 148.537C187.557 147.578 189.063 146.231 190.142 144.486C191.221 142.74 191.823 140.7 191.963 138.362C192.171 134.793 191.238 131.955 189.17 129.849V129.855ZM186.045 137.431L186 138.195C185.922 139.553 185.309 140.673 184.174 141.543C183.033 142.413 181.364 142.851 179.155 142.851C176.947 142.851 175.289 142.413 174.249 141.543C173.209 140.673 172.732 139.553 172.81 138.195L172.855 137.431C172.934 136.073 173.541 134.942 174.682 134.05C175.823 133.158 177.509 132.709 179.74 132.709C181.971 132.709 183.601 133.147 184.623 134.017C185.646 134.887 186.118 136.023 186.034 137.431H186.045Z" fill="#6F00B6"/>
<path d="M198.866 94L196.132 125.085H189.016L190.087 112.881H186.7L185.74 123.754H178.68L181.236 94.7149H188.296L187.23 106.807H190.623L191.75 94H198.866Z" fill="#6F00B6"/>
<path d="M108.776 96.9303H137.306L136.77 103.004H128.376L112.191 123.398H103.262L120.094 103.004H108.246L108.776 96.9303Z" fill="#6F00B6"/>
<path d="M120.002 108.989L127.849 122.29H137.303L128.904 108.989H120.002Z" fill="#6F00B6"/>
<path fill-rule="evenodd" clip-rule="evenodd" d="M94.217 120.91C93.9599 122.459 92.6123 123.725 89.9172 126.256L74.4979 140.737C72.1 142.989 70.9012 144.115 69.4578 144.356C68.99 144.434 68.513 144.443 68.0426 144.384C66.5905 144.199 65.3467 143.121 62.859 140.965L47.3773 127.546C45.8372 126.211 45.0672 125.544 45.1372 124.937C45.1588 124.75 45.2261 124.57 45.3335 124.414C45.681 123.907 46.7081 123.889 48.7623 123.854L68.9892 123.501C69.3935 123.493 69.5958 123.49 69.7239 123.595C69.765 123.628 69.7995 123.669 69.8264 123.714C69.9097 123.856 69.8729 124.053 69.799 124.445L69.0884 128.227C68.7828 129.854 68.6299 130.668 69.0981 130.996C69.5661 131.324 70.2935 130.914 71.7484 130.093L86.1706 121.954C87.5854 121.156 88.2927 120.757 88.2927 120.156C88.2927 119.555 87.5854 119.156 86.1706 118.357L71.7484 110.219C70.2935 109.398 69.5661 108.987 69.0981 109.316C68.6299 109.644 68.7828 110.457 69.0884 112.084L69.7982 115.862C69.8721 116.255 69.909 116.451 69.8256 116.593C69.799 116.639 69.7642 116.679 69.7232 116.713C69.5952 116.818 69.393 116.814 68.9888 116.807L48.7644 116.462C46.7095 116.426 45.682 116.409 45.3343 115.903C45.2269 115.746 45.1596 115.567 45.1379 115.379C45.0678 114.773 45.8379 114.105 47.3783 112.769L62.8589 99.3477C65.3465 97.191 66.5905 96.1126 68.0426 95.928C68.513 95.8682 68.9901 95.8775 69.458 95.9557C70.9014 96.1968 72.1005 97.3229 74.4987 99.5752L89.9172 114.055C92.6123 116.586 93.9599 117.852 94.217 119.401C94.2999 119.901 94.2999 120.41 94.217 120.91Z" fill="#6F00B6"/>
</g>
<defs>
<filter id="filter0_d_7798_101090" x="0" y="0" width="244" height="244" filterUnits="userSpaceOnUse" color-interpolation-filters="sRGB">
<feFlood flood-opacity="0" result="BackgroundImageFix"/>
<feColorMatrix in="SourceAlpha" type="matrix" values="0 0 0 0 0 0 0 0 0 0 0 0 0 0 0 0 0 0 127 0" result="hardAlpha"/>
<feOffset/>
<feGaussianBlur stdDeviation="5"/>
<feComposite in2="hardAlpha" operator="out"/>
<feColorMatrix type="matrix" values="0 0 0 0 0 0 0 0 0 0 0 0 0 0 0 0 0 0 0.15 0"/>
<feBlend mode="normal" in2="BackgroundImageFix" result="effect1_dropShadow_7798_101090"/>
<feBlend mode="normal" in="SourceGraphic" in2="effect1_dropShadow_7798_101090" result="shape"/>
</filter>
</defs>
</svg>
