<svg xmlns="http://www.w3.org/2000/svg" fill="none" viewBox="0 0 290 290"><rect width="290" height="290" fill="url(#a)" rx="50"/><mask id="c" width="290" height="290" x="0" y="0" maskUnits="userSpaceOnUse" style="mask-type:alpha"><rect width="290" height="290" x="290" y="290" fill="url(#b)" rx="50" transform="rotate(-180 290 290)"/></mask><g mask="url(#c)"><g filter="url(#d)"><path fill="#757575" d="M296.25 303.75V0L-.625 303.75z"/></g><g filter="url(#e)" opacity=".5"><path fill="url(#f)" fill-opacity=".3" d="M219.063 237.187h-13.438S243.125 290 244.688 290h15.625c2.315 0 3.407-.27 5.625-.937 2.777-.836 3.917-.997 6.562-2.188 3.65-1.643 5.687-3.341 8.438-6.25 2.466-2.608 3.908-4.035 5.625-7.187 1.517-2.787 1.889-4.387 2.5-7.501.586-2.994.625-4.761.625-7.812v-26.562l-42.813-24.064v4.063l-2.187 6.875-3.75 5.312-4.375 4.688-6.875 5.937z"/></g><g filter="url(#g)" opacity=".5"><path fill="url(#h)" fill-opacity=".2" d="M90.313 56.563h13.437S46.563-5.625 45-5.625H29.375c-2.316 0-3.408.27-5.625.937-2.778.836-3.918.997-6.563 2.188C13.537-.857 11.5.84 8.75 3.75c-2.466 2.608-3.908 4.035-5.625 7.187-1.518 2.787-1.89 4.387-2.5 7.5C.038 21.433 0 23.2 0 26.25v26.562L62.5 86.25v-4.062l2.188-6.875L68.438 70l4.374-4.687 6.876-5.938z"/></g></g><rect width="207" height="207" x="41.5" y="41.5" fill="url(#i)" stroke="url(#j)" rx="49.5"/><mask id="l" width="208" height="208" x="41" y="41" maskUnits="userSpaceOnUse" style="mask-type:alpha"><rect width="207" height="207" x="41.5" y="41.5" stroke="url(#k)" rx="49.5"/></mask><g filter="url(#m)" mask="url(#l)"><rect width="203" height="203" x="43.5" y="43.5" stroke="url(#n)" stroke-width="5" rx="47.5"/></g><defs><linearGradient id="f" x1="245.625" x2="283.75" y1="283.125" y2="237.5" gradientUnits="userSpaceOnUse"><stop stop-color="#d4d4d4"/><stop offset=".543" stop-color="#e5e5e5"/><stop offset="1" stop-color="#d4d4d4"/></linearGradient><linearGradient id="h" x1="55.313" x2="10.313" y1="10.625" y2="55.625" gradientUnits="userSpaceOnUse"><stop stop-color="#e5e5e5"/><stop offset=".466" stop-color="#fff"/><stop offset="1" stop-color="#e5e5e5"/></linearGradient><linearGradient id="i" x1="272.908" x2="63.713" y1="145" y2="130.057" gradientUnits="userSpaceOnUse"><stop stop-color="#bdbdbd"/><stop offset="1" stop-color="#9e9e9e"/></linearGradient><linearGradient id="j" x1="90.82" x2="233.431" y1="78.988" y2="237.79" gradientUnits="userSpaceOnUse"><stop stop-color="#9e9e9e"/><stop offset="1" stop-color="#bdbdbd"/></linearGradient><linearGradient id="k" x1="90.82" x2="233.431" y1="78.988" y2="237.79" gradientUnits="userSpaceOnUse"><stop stop-color="#9e9e9e"/><stop offset="1" stop-color="#bdbdbd"/></linearGradient><linearGradient id="n" x1="90.82" x2="233.431" y1="78.988" y2="237.79" gradientUnits="userSpaceOnUse"><stop stop-color="#9e9e9e"/><stop offset="1" stop-color="#bdbdbd"/></linearGradient><filter id="d" width="332.875" height="339.75" x="-18.625" y="-18" color-interpolation-filters="sRGB" filterUnits="userSpaceOnUse"><feFlood flood-opacity="0" result="BackgroundImageFix"/><feBlend in="SourceGraphic" in2="BackgroundImageFix" result="shape"/><feGaussianBlur result="effect1_foregroundBlur_6839_6175" stdDeviation="9"/></filter><filter id="e" width="104.062" height="102.501" x="195.625" y="197.499" color-interpolation-filters="sRGB" filterUnits="userSpaceOnUse"><feFlood flood-opacity="0" result="BackgroundImageFix"/><feBlend in="SourceGraphic" in2="BackgroundImageFix" result="shape"/><feGaussianBlur result="effect1_foregroundBlur_6839_6175" stdDeviation="5"/></filter><filter id="g" width="119.75" height="107.875" x="-8" y="-13.625" color-interpolation-filters="sRGB" filterUnits="userSpaceOnUse"><feFlood flood-opacity="0" result="BackgroundImageFix"/><feBlend in="SourceGraphic" in2="BackgroundImageFix" result="shape"/><feGaussianBlur result="effect1_foregroundBlur_6839_6175" stdDeviation="4"/></filter><filter id="m" width="228" height="228" x="31" y="31" color-interpolation-filters="sRGB" filterUnits="userSpaceOnUse"><feFlood flood-opacity="0" result="BackgroundImageFix"/><feBlend in="SourceGraphic" in2="BackgroundImageFix" result="shape"/><feGaussianBlur result="effect1_foregroundBlur_6839_6175" stdDeviation="5"/></filter><radialGradient id="a" cx="0" cy="0" r="1" gradientTransform="rotate(-90 145 0)scale(145)" gradientUnits="userSpaceOnUse"><stop stop-color="#bdbdbd"/><stop offset="1" stop-color="#9e9e9e"/></radialGradient><radialGradient id="b" cx="0" cy="0" r="1" gradientTransform="rotate(-90 435 0)scale(145)" gradientUnits="userSpaceOnUse"><stop stop-color="#bdbdbd"/><stop offset="1" stop-color="#525252"/></radialGradient></defs></svg>