<svg width="current" height="current" viewBox="0 0 333 60" fill="none" xmlns="http://www.w3.org/2000/svg">
<path d="M32.6766 0H25.2293V18.3522L17.9393 25.8101H0V33.4289H21.0268L32.6623 21.5109H32.648H32.6766V0Z" fill="#F89202"/>
<path d="M24.7117 59.1274H32.159V40.7751L39.4491 33.3172H57.3883V25.6985H36.3615L24.726 37.6019L24.7403 37.6165H24.7117V59.1274Z" fill="#F89202"/>
<path d="M32.6766 0H25.2293V18.3522L17.9393 25.8101H0V33.4289H21.0268L32.6623 21.5109H32.648H32.6766V0Z" fill="#F89202"/>
<path d="M24.7117 59.1274H32.159V40.7751L39.4491 33.3172H57.3883V25.6985H36.3615L24.726 37.6019L24.7403 37.6165H24.7117V59.1274Z" fill="#F89202"/>
<path d="M75.9971 45.8607H83.6163V21.4478L91.0747 13.9894H116.532V6.37012H87.9159L76.0117 18.2743L76.0263 18.2889H75.9971V45.8607Z" fill="#F5F5F5"/>
<rect x="75.9971" y="45.0254" width="40.7443" height="7.73097" fill="#F5F5F5"/>
<rect x="273.463" y="6.37012" width="46.3858" height="7.73096" transform="rotate(90 273.463 6.37012)" fill="#F5F5F5"/>
<path d="M289.756 14.103L249.012 14.103L259.25 6.37206L289.756 6.37206L289.756 14.103Z" fill="#F5F5F5"/>
<rect x="186.943" y="6.37012" width="46.3858" height="7.73096" transform="rotate(90 186.943 6.37012)" fill="#F5F5F5"/>
<path d="M203.249 14.103L162.505 14.103L172.743 6.37206L203.249 6.37206L203.249 14.103Z" fill="#F5F5F5"/>
<path d="M119.241 45.8607H126.86V21.4478L134.319 13.9894H152.672V6.37012H131.16L119.256 18.2743L119.27 18.2889H119.241V45.8607Z" fill="#F5F5F5"/>
<rect x="119.241" y="45.0254" width="40.7443" height="7.73097" fill="#F5F5F5"/>
<rect x="159.986" y="6.37012" width="46.3858" height="7.73096" transform="rotate(90 159.986 6.37012)" fill="#F5F5F5"/>
<path d="M292.253 45.8607H299.872V21.4478L307.331 13.9894H325.684V6.37012H304.172L292.268 18.2743L292.282 18.2889H292.253V45.8607Z" fill="#F5F5F5"/>
<rect x="292.253" y="45.0254" width="40.7443" height="7.73097" fill="#F5F5F5"/>
<rect x="332.998" y="6.37012" width="46.3858" height="7.73096" transform="rotate(90 332.998 6.37012)" fill="#F5F5F5"/>
<path d="M205.756 52.7559H213.375V21.3802L220.834 13.9552H239.187V6.37012H217.675L205.77 18.2209L205.785 18.2355H205.756V52.7559Z" fill="#F5F5F5"/>
<rect x="241.288" y="33.7422" width="30.7149" height="7.73097" transform="rotate(-180 241.288 33.7422)" fill="#F5F5F5"/>
<rect x="246.493" y="6.37012" width="46.3858" height="7.73096" transform="rotate(90 246.493 6.37012)" fill="#F5F5F5"/>
</svg>
