<svg width="current" height="current" viewBox="0 0 18 16" fill="currentColor" xmlns="http://www.w3.org/2000/svg">
<path d="M16.2 6.22222V4.44444C16.2 4.2087 16.1052 3.9826 15.9364 3.81591C15.7676 3.64921 15.5387 3.55556 15.3 3.55556H14.4V4.44444C14.4 4.68019 14.3052 4.90628 14.1364 5.07298C13.9676 5.23968 13.7387 5.33333 13.5 5.33333C13.2613 5.33333 13.0324 5.23968 12.8636 5.07298C12.6948 4.90628 12.6 4.68019 12.6 4.44444V3.55556H5.4V4.44444C5.4 4.68019 5.30518 4.90628 5.1364 5.07298C4.96761 5.23968 4.73869 5.33333 4.5 5.33333C4.2613 5.33333 4.03239 5.23968 3.8636 5.07298C3.69482 4.90628 3.6 4.68019 3.6 4.44444V3.55556H2.7C2.46131 3.55556 2.23239 3.64921 2.0636 3.81591C1.89482 3.9826 1.8 4.2087 1.8 4.44444V6.22222H16.2ZM16.2 8H1.8V13.3333C1.8 13.5691 1.89482 13.7952 2.0636 13.9619C2.23239 14.1286 2.46131 14.2222 2.7 14.2222H15.3C15.5387 14.2222 15.7676 14.1286 15.9364 13.9619C16.1052 13.7952 16.2 13.5691 16.2 13.3333V8ZM14.4 1.77778H15.3C16.0161 1.77778 16.7028 2.05873 17.2092 2.55883C17.7155 3.05892 18 3.7372 18 4.44444V13.3333C18 14.0406 17.7155 14.7189 17.2092 15.219C16.7028 15.719 16.0161 16 15.3 16H2.7C1.98392 16 1.29716 15.719 0.790812 15.219C0.284463 14.7189 0 14.0406 0 13.3333L0 4.44444C0 3.7372 0.284463 3.05892 0.790812 2.55883C1.29716 2.05873 1.98392 1.77778 2.7 1.77778H3.6V0.888889C3.6 0.653141 3.69482 0.427049 3.8636 0.26035C4.03239 0.0936505 4.2613 0 4.5 0C4.73869 0 4.96761 0.0936505 5.1364 0.26035C5.30518 0.427049 5.4 0.653141 5.4 0.888889V1.77778H12.6V0.888889C12.6 0.653141 12.6948 0.427049 12.8636 0.26035C13.0324 0.0936505 13.2613 0 13.5 0C13.7387 0 13.9676 0.0936505 14.1364 0.26035C14.3052 0.427049 14.4 0.653141 14.4 0.888889V1.77778Z" fill="#525252"/>
</svg>
