<svg width="current" height="current" viewBox="0 0 24 24" fill="currentColor" xmlns="http://www.w3.org/2000/svg">
<path d="M13.3166 12.0705L8.36665 7.12049C8.18449 6.93189 8.0837 6.67929 8.08598 6.41709C8.08825 6.1549 8.19342 5.90408 8.37883 5.71867C8.56424 5.53327 8.81505 5.4281 9.07725 5.42582C9.33944 5.42354 9.59205 5.52434 9.78065 5.70649L15.4376 11.3635C15.6251 11.551 15.7304 11.8053 15.7304 12.0705C15.7304 12.3357 15.6251 12.59 15.4376 12.7775L9.78065 18.4345C9.59205 18.6167 9.33944 18.7174 9.07725 18.7152C8.81505 18.7129 8.56424 18.6077 8.37883 18.4223C8.19342 18.2369 8.08825 17.9861 8.08598 17.7239C8.0837 17.4617 8.18449 17.2091 8.36665 17.0205L13.3166 12.0705Z" fill="currentColor"/>
</svg>
