<svg xmlns="http://www.w3.org/2000/svg" width="108" height="108" viewBox="0 0 108 108" fill="none">
  <g clip-path="url(#clip0_7527_73068)">
    <path d="M71.9289 6.92893C70.0536 5.05357 67.51 4 64.8579 4H24C18.5 4 14 8.5 14 14V94C14 99.5 18.5 104 24 104H84C89.5 104 94 99.5 94 94V33.1421C94 30.49 92.9464 27.9464 91.0711 26.0711L71.9289 6.92893ZM24 94V14H64V34H84V94H24Z" fill="#FFB800"/>
    <path d="M40.3994 46.71L42.2461 47.874L42.4062 47.9678C43.2184 48.4158 44.206 48.5954 45.1777 48.4619L46.4102 48.1943L47.0166 48.0625V57.1621C47.0166 57.2442 47.0538 57.3424 47.1533 57.4277C47.2552 57.515 47.4079 57.5742 47.5801 57.5742C47.7522 57.5742 47.9049 57.5149 48.0068 57.4277C48.1064 57.3424 48.1445 57.2442 48.1445 57.1621V52.2363C48.1509 50.7249 48.8548 49.2956 50.0703 48.2539C51.2836 47.2142 52.9129 46.638 54.6006 46.6328H68.335L68.293 47.1719L66.293 72.9561V72.959C66.2064 74.0175 65.661 74.9911 64.7939 75.6963C63.9286 76.4001 62.7998 76.7919 61.6318 76.8096H46.3037V76.8086C45.1198 76.8109 43.9679 76.4299 43.083 75.7246C42.1962 75.0178 41.6378 74.0321 41.5498 72.959L41.5488 72.9551L39.6338 47.1699L39.5605 46.1807L40.3994 46.71ZM54.6045 49.4561C53.6995 49.4603 52.8457 49.7713 52.2256 50.3027C51.6077 50.8322 51.277 51.5316 51.2725 52.2422V57.1621C51.2725 58.0473 50.8607 58.8779 50.1621 59.4766C49.466 60.0729 48.5362 60.3975 47.5801 60.3975C46.6239 60.3974 45.6941 60.073 44.998 59.4766C44.2995 58.8779 43.8887 58.0473 43.8887 57.1621V51.2627C43.5984 51.2442 43.3099 51.2095 43.0244 51.1602L44.7158 72.7617C44.7447 73.0701 44.91 73.3773 45.208 73.6123C45.5078 73.8486 45.9134 73.9875 46.3447 73.9863H61.668C62.0993 73.9875 62.5049 73.8486 62.8047 73.6123C63.1027 73.3773 63.268 73.0701 63.2969 72.7617L65.127 49.4561H54.6045Z" fill="#FFB800" stroke="#FFB800"/>
    <path d="M51.7363 37.5859C52.6704 37.4467 53.6281 37.4766 54.5488 37.6729C55.353 37.8443 56.1163 38.1405 56.8008 38.5479C57.8204 37.8696 59.07 37.5089 60.3496 37.5186L60.3506 37.5176H60.3535L60.3525 37.5186C61.2424 37.5218 62.1218 37.6997 62.9229 38.043C63.6508 38.3549 64.2982 38.7974 64.8232 39.3428C65.5897 39.3591 66.3471 39.5059 67.0508 39.7783C67.8231 40.0773 68.5152 40.5206 69.0752 41.0811C69.6354 41.6418 70.0505 42.3075 70.2842 43.0322C70.5179 43.7574 70.563 44.5201 70.415 45.2637L70.4111 45.2793C70.1237 46.5088 69.3418 47.5931 68.2285 48.3506C67.1858 49.06 65.9087 49.4462 64.5986 49.4609L64.3359 49.459H54.6064L54.2695 49.4746C53.4913 49.5442 52.7692 49.8406 52.2266 50.3057C51.6091 50.835 51.2781 51.5338 51.2734 52.2441V57.165C51.2734 58.0501 50.8626 58.8799 50.1641 59.4785C49.4679 60.0751 48.5383 60.4004 47.582 60.4004C46.6258 60.4004 45.6962 60.0751 45 59.4785C44.3015 58.8799 43.8907 58.0501 43.8906 57.165V51.2656C42.623 51.1847 41.3986 50.8015 40.3584 50.1484V50.1475C39.1909 49.418 38.3064 48.3833 37.8477 47.1787C37.3881 45.9718 37.3838 44.6682 37.8359 43.459C38.1998 42.48 38.8463 41.6063 39.7041 40.916C40.4546 40.3121 41.3471 39.8651 42.3135 39.6006L42.7324 39.498C44.2887 39.1558 45.9332 39.3063 47.3711 39.918C47.8522 39.354 48.4425 38.8693 49.1143 38.4854C49.9093 38.031 50.8023 37.7252 51.7363 37.5859ZM60.4736 40.3027C60.0138 40.2825 59.5562 40.3569 59.1416 40.5186C58.7291 40.6794 58.375 40.9201 58.1045 41.2139L57.3516 42.1289L57.0049 42.5498L56.6152 42.167L55.75 41.3174C55.3916 41.002 54.9561 40.7496 54.4697 40.5801C53.9785 40.4089 53.4487 40.3269 52.915 40.3408H52.9023C52.1219 40.342 51.3655 40.5474 50.7354 40.9229C50.1058 41.298 49.6383 41.8209 49.3809 42.4111L48.8516 43.6807L48.5996 44.2852L48.083 43.8828L46.918 42.9746L46.7402 42.8477C46.3172 42.5639 45.8227 42.358 45.2891 42.248C44.6791 42.1224 44.0415 42.1267 43.4346 42.2617V42.2627C42.734 42.4182 42.1079 42.7384 41.626 43.1787C41.1447 43.6185 40.8287 44.1572 40.7012 44.7275C40.5739 45.2969 40.6366 45.8867 40.8867 46.4316C41.1063 46.9098 41.465 47.3415 41.9365 47.6836L42.1445 47.8242L42.1514 47.8281C42.5753 48.1026 43.0638 48.3029 43.5879 48.4131C44.1093 48.5227 44.6523 48.5399 45.1826 48.4648L46.4111 48.1973L47.0176 48.0645V57.165C47.0176 57.2471 47.0558 57.3444 47.1553 57.4297C47.2572 57.517 47.4097 57.5771 47.582 57.5771C47.7543 57.5771 47.9069 57.517 48.0088 57.4297C48.1082 57.3445 48.1455 57.2471 48.1455 57.165V52.2393C48.1518 50.7278 48.8559 49.2986 50.0713 48.2568C51.2846 47.2171 52.9148 46.6409 54.6025 46.6357H64.627C65.2293 46.6128 65.806 46.4322 66.2773 46.123C66.811 45.773 67.166 45.2858 67.3076 44.7588C67.3673 44.4553 67.3521 44.1446 67.2578 43.8457C67.1618 43.5414 66.9861 43.2521 66.7383 43.001V43C66.4382 42.7069 66.0548 42.4741 65.6172 42.3262C65.1766 42.1773 64.6973 42.1211 64.2227 42.1631L64.2012 42.165H63.208L63.0596 41.9404L62.7061 41.4053C62.4747 41.0942 62.1546 40.828 61.7676 40.6338C61.377 40.4379 60.9332 40.323 60.4736 40.3027Z" fill="#FFB800" stroke="#FFB800"/>
    <path d="M52.8203 64.0488C52.8204 63.3497 53.3877 62.7832 54.0869 62.7832C54.7859 62.7835 55.3524 63.3498 55.3525 64.0488V70.9443C55.3525 71.6434 54.786 72.2107 54.0869 72.2109C53.3876 72.2109 52.8203 71.6436 52.8203 70.9443V64.0488Z" fill="#FFB800" stroke="#FFB800"/>
    <path d="M46.8453 64.2696L46.8284 64.1416C46.7752 63.5019 47.2144 62.9135 47.859 62.7936C48.5462 62.666 49.2068 63.1191 49.3347 63.8063L50.596 70.5855C50.7239 71.2728 50.2706 71.9341 49.5834 72.0623C48.8959 72.1902 48.2344 71.7362 48.1065 71.0487L46.8453 64.2696Z" fill="#FFB800" stroke="#FFB800"/>
    <path d="M61.3227 64.2696L61.3396 64.1416C61.3928 63.5019 60.9536 62.9135 60.309 62.7936C59.6218 62.666 58.9612 63.1191 58.8332 63.8063L57.572 70.5855C57.4441 71.2728 57.8974 71.9341 58.5846 72.0623C59.272 72.1902 59.9336 71.7362 60.0615 71.0487L61.3227 64.2696Z" fill="#FFB800" stroke="#FFB800"/>
  </g>
  <defs>
    <clipPath id="clip0_7527_73068">
      <rect width="108" height="108" fill="white"/>
    </clipPath>
  </defs>
</svg>