<svg xmlns="http://www.w3.org/2000/svg" width="100" height="108" viewBox="0 0 100 108" fill="none">
  <rect x="21" y="6" width="14" height="35" fill="white"/>
  <rect x="67" y="6" width="14" height="35" fill="white"/>
  <rect x="7" y="36" width="86" height="66" fill="white"/>
  <path d="M7.69231 100H92.3077V38.4615H7.69231V100ZM30.7692 26.9231V9.61539C30.7692 9.05449 30.5889 8.59375 30.2284 8.23317C29.8678 7.8726 29.4071 7.69231 28.8462 7.69231H25C24.4391 7.69231 23.9784 7.8726 23.6178 8.23317C23.2572 8.59375 23.0769 9.05449 23.0769 9.61539V26.9231C23.0769 27.484 23.2572 27.9447 23.6178 28.3053C23.9784 28.6659 24.4391 28.8462 25 28.8462H28.8462C29.4071 28.8462 29.8678 28.6659 30.2284 28.3053C30.5889 27.9447 30.7692 27.484 30.7692 26.9231ZM76.9231 26.9231V9.61539C76.9231 9.05449 76.7428 8.59375 76.3822 8.23317C76.0216 7.8726 75.5609 7.69231 75 7.69231H71.1538C70.5929 7.69231 70.1322 7.8726 69.7716 8.23317C69.4111 8.59375 69.2308 9.05449 69.2308 9.61539V26.9231C69.2308 27.484 69.4111 27.9447 69.7716 28.3053C70.1322 28.6659 70.5929 28.8462 71.1538 28.8462H75C75.5609 28.8462 76.0216 28.6659 76.3822 28.3053C76.7428 27.9447 76.9231 27.484 76.9231 26.9231ZM100 23.0769V100C100 102.083 99.2388 103.886 97.7163 105.409C96.1939 106.931 94.391 107.692 92.3077 107.692H7.69231C5.60897 107.692 3.80609 106.931 2.28365 105.409C0.761218 103.886 0 102.083 0 100V23.0769C0 20.9936 0.761218 19.1907 2.28365 17.6683C3.80609 16.1458 5.60897 15.3846 7.69231 15.3846H15.3846V9.61539C15.3846 6.97115 16.3261 4.70753 18.2091 2.82452C20.0921 0.941506 22.3558 0 25 0H28.8462C31.4904 0 33.754 0.941506 35.637 2.82452C37.52 4.70753 38.4615 6.97115 38.4615 9.61539V15.3846H61.5385V9.61539C61.5385 6.97115 62.48 4.70753 64.363 2.82452C66.246 0.941506 68.5096 0 71.1538 0H75C77.6442 0 79.9079 0.941506 81.7909 2.82452C83.6739 4.70753 84.6154 6.97115 84.6154 9.61539V15.3846H92.3077C94.391 15.3846 96.1939 16.1458 97.7163 17.6683C99.2388 19.1907 100 20.9936 100 23.0769Z" fill="#5A4A3A"/>
  <path d="M50.1387 46.5156C55.9582 46.6662 61.5073 49.0434 65.6338 53.1699C69.8935 57.4296 72.2894 63.2053 72.2959 69.2295V69.2305C72.2958 73.7242 70.9633 78.1171 68.4668 81.8535C65.9701 85.5901 62.4214 88.5029 58.2695 90.2227C54.1176 91.9424 49.5483 92.3924 45.1406 91.5156C40.733 90.6389 36.6845 88.4746 33.5068 85.2969C30.3291 82.1192 28.1648 78.0707 27.2881 73.6631C26.4113 69.2554 26.8613 64.6861 28.5811 60.5342C30.3009 56.3824 33.2136 52.8336 36.9502 50.3369C40.6868 47.8403 45.0803 46.5078 49.5742 46.5078L50.1387 46.5156ZM56.4688 52.583C53.1764 51.2194 49.5537 50.8624 46.0586 51.5576C42.5633 52.2529 39.3529 53.9693 36.833 56.4893C34.3131 59.0092 32.5966 62.2196 31.9014 65.7148C31.2062 69.2099 31.5631 72.8327 32.9268 76.125C34.2905 79.4175 36.6003 82.232 39.5635 84.2119C42.5264 86.1916 46.0098 87.247 49.5732 87.2471C54.3506 87.2418 58.9305 85.3429 62.3086 81.9648C65.6864 78.587 67.5863 74.0074 67.5918 69.2305L67.5801 68.5625C67.4567 65.2327 66.4117 61.9975 64.5557 59.2197C62.5758 56.2566 59.7612 53.9468 56.4688 52.583Z" fill="#5A4A3A" stroke="#5A4A3A"/>
  <path d="M49.5742 55.7656C50.1978 55.7656 50.7963 56.0132 51.2373 56.4541C51.6783 56.8951 51.9267 57.4935 51.9268 58.1172V67.8975L60.0371 72.7637C60.3078 72.9197 60.5452 73.1283 60.7344 73.377C60.9235 73.6255 61.0614 73.9095 61.1396 74.2119C61.2179 74.5143 61.2352 74.8295 61.1904 75.1387C61.1456 75.4479 61.0389 75.7449 60.8779 76.0127C60.717 76.2804 60.5048 76.5136 60.2529 76.6982C60.0009 76.8829 59.714 77.016 59.4102 77.0889C59.1066 77.1616 58.7915 77.1724 58.4834 77.1221C58.178 77.0722 57.8859 76.9619 57.623 76.7988V76.7998L48.3633 71.2441L48.3555 71.2393L48.3467 71.2334C48.0148 71.0159 47.7394 70.7223 47.5439 70.377C47.3486 70.0316 47.2382 69.6445 47.2227 69.248V58.1172C47.2227 57.4935 47.4701 56.8951 47.9111 56.4541C48.3521 56.0131 48.9506 55.7657 49.5742 55.7656Z" fill="#5A4A3A" stroke="#5A4A3A"/>
</svg>