<svg xmlns="http://www.w3.org/2000/svg" width="100" height="108" viewBox="0 0 100 108" fill="none">
  <rect x="21" y="6" width="14" height="35" fill="white"/>
  <rect x="67" y="6" width="14" height="35" fill="white"/>
  <rect x="7" y="36" width="86" height="66" fill="white"/>
  <path d="M7.69231 100H92.3077V38.4615H7.69231V100ZM30.7692 26.9231V9.61539C30.7692 9.05449 30.5889 8.59375 30.2284 8.23317C29.8678 7.8726 29.4071 7.69231 28.8462 7.69231H25C24.4391 7.69231 23.9784 7.8726 23.6178 8.23317C23.2572 8.59375 23.0769 9.05449 23.0769 9.61539V26.9231C23.0769 27.484 23.2572 27.9447 23.6178 28.3053C23.9784 28.6659 24.4391 28.8462 25 28.8462H28.8462C29.4071 28.8462 29.8678 28.6659 30.2284 28.3053C30.5889 27.9447 30.7692 27.484 30.7692 26.9231ZM76.9231 26.9231V9.61539C76.9231 9.05449 76.7428 8.59375 76.3822 8.23317C76.0216 7.8726 75.5609 7.69231 75 7.69231H71.1538C70.5929 7.69231 70.1322 7.8726 69.7716 8.23317C69.4111 8.59375 69.2308 9.05449 69.2308 9.61539V26.9231C69.2308 27.484 69.4111 27.9447 69.7716 28.3053C70.1322 28.6659 70.5929 28.8462 71.1538 28.8462H75C75.5609 28.8462 76.0216 28.6659 76.3822 28.3053C76.7428 27.9447 76.9231 27.484 76.9231 26.9231ZM100 23.0769V100C100 102.083 99.2388 103.886 97.7163 105.409C96.1939 106.931 94.391 107.692 92.3077 107.692H7.69231C5.60897 107.692 3.80609 106.931 2.28365 105.409C0.761218 103.886 0 102.083 0 100V23.0769C0 20.9936 0.761218 19.1907 2.28365 17.6683C3.80609 16.1458 5.60897 15.3846 7.69231 15.3846H15.3846V9.61539C15.3846 6.97115 16.3261 4.70753 18.2091 2.82452C20.0921 0.941506 22.3558 0 25 0H28.8462C31.4904 0 33.754 0.941506 35.637 2.82452C37.52 4.70753 38.4615 6.97115 38.4615 9.61539V15.3846H61.5385V9.61539C61.5385 6.97115 62.48 4.70753 64.363 2.82452C66.246 0.941506 68.5096 0 71.1538 0H75C77.6442 0 79.9079 0.941506 81.7909 2.82452C83.6739 4.70753 84.6154 6.97115 84.6154 9.61539V15.3846H92.3077C94.391 15.3846 96.1939 16.1458 97.7163 17.6683C99.2388 19.1907 100 20.9936 100 23.0769Z" fill="#E5484D"/>
  <rect x="32.4805" y="64.1016" width="35.0427" height="7.69231" rx="2" fill="#E5484D"/>
</svg>