<svg xmlns="http://www.w3.org/2000/svg" width="100" height="108" viewBox="0 0 100 108" fill="none">
  <rect x="21" y="6" width="14" height="35" fill="white"/>
  <rect x="67" y="6" width="14" height="35" fill="white"/>
  <rect x="7" y="36" width="86" height="66" fill="white"/>
  <path d="M66.7668 83.471L64.0024 86.2433C63.6418 86.6049 63.2011 86.7857 62.6803 86.7857C62.1595 86.7857 61.6987 86.6049 61.2981 86.2433L50 74.8527L38.7019 86.2433C38.3013 86.6049 37.8405 86.7857 37.3197 86.7857C36.7989 86.7857 36.3582 86.6049 35.9976 86.2433L33.2332 83.471C32.8726 83.1094 32.6923 82.6674 32.6923 82.1451C32.6923 81.6228 32.8726 81.1607 33.2332 80.7589L44.5913 69.4286L33.2332 58.0982C32.8726 57.6964 32.6923 57.2344 32.6923 56.7121C32.6923 56.1897 32.8726 55.7478 33.2332 55.3862L35.9976 52.6138C36.3582 52.2522 36.7989 52.0714 37.3197 52.0714C37.8405 52.0714 38.3013 52.2522 38.7019 52.6138L50 63.9442L61.2981 52.6138C61.6987 52.2522 62.1595 52.0714 62.6803 52.0714C63.2011 52.0714 63.6418 52.2522 64.0024 52.6138L66.7668 55.3862C67.1274 55.7478 67.3077 56.1897 67.3077 56.7121C67.3077 57.2344 67.1274 57.6964 66.7668 58.0982L55.4688 69.4286L66.7668 80.7589C67.1274 81.1607 67.3077 81.6228 67.3077 82.1451C67.3077 82.6674 67.1274 83.1094 66.7668 83.471ZM7.69231 100.286H92.3077V38.5714H7.69231V100.286ZM30.7692 27V9.64286C30.7692 9.08036 30.5889 8.6183 30.2284 8.2567C29.8678 7.89509 29.4071 7.71429 28.8462 7.71429H25C24.4391 7.71429 23.9784 7.89509 23.6178 8.2567C23.2572 8.6183 23.0769 9.08036 23.0769 9.64286V27C23.0769 27.5625 23.2572 28.0246 23.6178 28.3862C23.9784 28.7478 24.4391 28.9286 25 28.9286H28.8462C29.4071 28.9286 29.8678 28.7478 30.2284 28.3862C30.5889 28.0246 30.7692 27.5625 30.7692 27ZM76.9231 27V9.64286C76.9231 9.08036 76.7428 8.6183 76.3822 8.2567C76.0216 7.89509 75.5609 7.71429 75 7.71429H71.1538C70.5929 7.71429 70.1322 7.89509 69.7716 8.2567C69.4111 8.6183 69.2308 9.08036 69.2308 9.64286V27C69.2308 27.5625 69.4111 28.0246 69.7716 28.3862C70.1322 28.7478 70.5929 28.9286 71.1538 28.9286H75C75.5609 28.9286 76.0216 28.7478 76.3822 28.3862C76.7428 28.0246 76.9231 27.5625 76.9231 27ZM100 23.1429V100.286C100 102.375 99.2388 104.183 97.7163 105.71C96.1939 107.237 94.391 108 92.3077 108H7.69231C5.60897 108 3.80609 107.237 2.28365 105.71C0.761218 104.183 0 102.375 0 100.286V23.1429C0 21.0536 0.761218 19.2455 2.28365 17.7188C3.80609 16.192 5.60897 15.4286 7.69231 15.4286H15.3846V9.64286C15.3846 6.99107 16.3261 4.72098 18.2091 2.83259C20.0921 0.944196 22.3558 0 25 0H28.8462C31.4904 0 33.754 0.944196 35.637 2.83259C37.52 4.72098 38.4615 6.99107 38.4615 9.64286V15.4286H61.5385V9.64286C61.5385 6.99107 62.48 4.72098 64.363 2.83259C66.246 0.944196 68.5096 0 71.1538 0H75C77.6442 0 79.9079 0.944196 81.7909 2.83259C83.6739 4.72098 84.6154 6.99107 84.6154 9.64286V15.4286H92.3077C94.391 15.4286 96.1939 16.192 97.7163 17.7188C99.2388 19.2455 100 21.0536 100 23.1429Z" fill="#E5484D"/>
</svg>