<svg xmlns="http://www.w3.org/2000/svg" width="108" height="108" viewBox="0 0 108 108" fill="none">
  <g clip-path="url(#clip0_7527_73041)">
    <path d="M71.9289 6.92893C70.0536 5.05357 67.51 4 64.8579 4H24C18.5 4 14 8.5 14 14V94C14 99.5 18.5 104 24 104H84C89.5 104 94 99.5 94 94V33.1421C94 30.49 92.9464 27.9464 91.0711 26.0711L71.9289 6.92893ZM24 94V14H64V34H84V94H24Z" fill="#F87D02"/>
    <path d="M66.8 48H41.2C40.3513 48 39.5374 48.3301 38.9373 48.9177C38.3371 49.5052 38 50.3022 38 51.1331C38 51.9641 38.3371 52.761 38.9373 53.3485C39.5374 53.9361 40.3513 54.2662 41.2 54.2662H66.8C67.6487 54.2662 68.4626 53.9361 69.0627 53.3485C69.6629 52.761 70 51.9641 70 51.1331C70 50.3022 69.6629 49.5052 69.0627 48.9177C68.4626 48.3301 67.6487 48 66.8 48Z" fill="#F87D02"/>
    <path d="M41.2 58.7338H66.8C67.6487 58.7338 68.4626 59.0639 69.0627 59.6515C69.6629 60.239 70 61.0359 70 61.8669C70 62.6978 69.6629 63.4948 69.0627 64.0823C68.4626 64.6699 67.6487 65 66.8 65H41.2C40.3513 65 39.5374 64.6699 38.9373 64.0823C38.3371 63.4948 38 62.6978 38 61.8669C38 61.0359 38.3371 60.239 38.9373 59.6515C39.5374 59.0639 40.3513 58.7338 41.2 58.7338Z" fill="#F87D02"/>
  </g>
  <defs>
    <clipPath id="clip0_7527_73041">
      <rect width="108" height="108" fill="white"/>
    </clipPath>
  </defs>
</svg>